%TF.GenerationSoftware,KiCad,Pcbnew,9.0.0*%
%TF.CreationDate,2026-03-27T21:54:03+07:00*%
%TF.ProjectId,Gateway_Schematic_V3,47617465-7761-4795-9f53-6368656d6174,rev?*%
%TF.SameCoordinates,Original*%
%TF.FileFunction,Profile,NP*%
%FSLAX46Y46*%
G04 Gerber Fmt 4.6, Leading zero omitted, Abs format (unit mm)*
G04 Created by KiCad (PCBNEW 9.0.0) date 2026-03-27 21:54:03*
%MOMM*%
%LPD*%
G01*
G04 APERTURE LIST*
%TA.AperFunction,Profile*%
%ADD10C,0.050000*%
%TD*%
G04 APERTURE END LIST*
D10*
X320500000Y-141500000D02*
G75*
G02*
X323500000Y-144500000I0J-3000000D01*
G01*
X320500000Y-141500000D02*
X313830000Y-141490000D01*
X313830000Y-141490000D02*
X313830000Y-147900000D01*
X130250000Y-249750000D02*
X130250000Y-144500000D01*
X130250000Y-144500000D02*
G75*
G02*
X133250000Y-141500000I3000000J0D01*
G01*
X133250000Y-141500000D02*
X265470000Y-141500000D01*
X172500000Y-241500000D02*
X172500000Y-152750000D01*
X174000000Y-147250000D02*
G75*
G02*
X175500000Y-148750000I0J-1500000D01*
G01*
X175500000Y-148750000D02*
X175500000Y-231750000D01*
X268110000Y-249465000D02*
X271210000Y-252740000D01*
X171000000Y-151250000D02*
X155000000Y-151250000D01*
X227380000Y-252750000D02*
X230790000Y-249475000D01*
X174000000Y-243000000D02*
G75*
G02*
X172500000Y-241500000I0J1500000D01*
G01*
X230790000Y-249475000D02*
X268110000Y-249465000D01*
X155000000Y-151250000D02*
G75*
G02*
X153500000Y-149750000I0J1500000D01*
G01*
X323500000Y-144500000D02*
X323500000Y-249750000D01*
X153500000Y-149750000D02*
X153500000Y-148750000D01*
X175500000Y-241500000D02*
G75*
G02*
X174000000Y-243000000I-1500000J0D01*
G01*
X153500000Y-148750000D02*
G75*
G02*
X155000000Y-147250000I1500000J0D01*
G01*
X133250000Y-252750000D02*
G75*
G02*
X130250000Y-249750000I0J3000000D01*
G01*
X175500000Y-231750000D02*
X175500000Y-241500000D01*
X155000000Y-147250000D02*
X174000000Y-147250000D01*
X323500000Y-249750000D02*
G75*
G02*
X320500000Y-252750000I-3000000J0D01*
G01*
X171000000Y-151250000D02*
G75*
G02*
X172500000Y-152750000I0J-1500000D01*
G01*
X133250000Y-252750000D02*
X227380000Y-252750000D01*
X271210000Y-252740000D02*
X320500000Y-252750000D01*
X313830000Y-147900000D02*
X265470000Y-147900000D01*
X265470000Y-147900000D02*
X265470000Y-141500000D01*
M02*
