%TF.GenerationSoftware,KiCad,Pcbnew,9.0.0*%
%TF.CreationDate,2026-03-27T21:54:03+07:00*%
%TF.ProjectId,Gateway_Schematic_V3,47617465-7761-4795-9f53-6368656d6174,rev?*%
%TF.SameCoordinates,Original*%
%TF.FileFunction,Paste,Top*%
%TF.FilePolarity,Positive*%
%FSLAX46Y46*%
G04 Gerber Fmt 4.6, Leading zero omitted, Abs format (unit mm)*
G04 Created by KiCad (PCBNEW 9.0.0) date 2026-03-27 21:54:03*
%MOMM*%
%LPD*%
G01*
G04 APERTURE LIST*
G04 Aperture macros list*
%AMRoundRect*
0 Rectangle with rounded corners*
0 $1 Rounding radius*
0 $2 $3 $4 $5 $6 $7 $8 $9 X,Y pos of 4 corners*
0 Add a 4 corners polygon primitive as box body*
4,1,4,$2,$3,$4,$5,$6,$7,$8,$9,$2,$3,0*
0 Add four circle primitives for the rounded corners*
1,1,$1+$1,$2,$3*
1,1,$1+$1,$4,$5*
1,1,$1+$1,$6,$7*
1,1,$1+$1,$8,$9*
0 Add four rect primitives between the rounded corners*
20,1,$1+$1,$2,$3,$4,$5,0*
20,1,$1+$1,$4,$5,$6,$7,0*
20,1,$1+$1,$6,$7,$8,$9,0*
20,1,$1+$1,$8,$9,$2,$3,0*%
%AMOutline5P*
0 Free polygon, 5 corners , with rotation*
0 The origin of the aperture is its center*
0 number of corners: always 5*
0 $1 to $10 corner X, Y*
0 $11 Rotation angle, in degrees counterclockwise*
0 create outline with 5 corners*
4,1,5,$1,$2,$3,$4,$5,$6,$7,$8,$9,$10,$1,$2,$11*%
%AMOutline6P*
0 Free polygon, 6 corners , with rotation*
0 The origin of the aperture is its center*
0 number of corners: always 6*
0 $1 to $12 corner X, Y*
0 $13 Rotation angle, in degrees counterclockwise*
0 create outline with 6 corners*
4,1,6,$1,$2,$3,$4,$5,$6,$7,$8,$9,$10,$11,$12,$1,$2,$13*%
%AMOutline7P*
0 Free polygon, 7 corners , with rotation*
0 The origin of the aperture is its center*
0 number of corners: always 7*
0 $1 to $14 corner X, Y*
0 $15 Rotation angle, in degrees counterclockwise*
0 create outline with 7 corners*
4,1,7,$1,$2,$3,$4,$5,$6,$7,$8,$9,$10,$11,$12,$13,$14,$1,$2,$15*%
%AMOutline8P*
0 Free polygon, 8 corners , with rotation*
0 The origin of the aperture is its center*
0 number of corners: always 8*
0 $1 to $16 corner X, Y*
0 $17 Rotation angle, in degrees counterclockwise*
0 create outline with 8 corners*
4,1,8,$1,$2,$3,$4,$5,$6,$7,$8,$9,$10,$11,$12,$13,$14,$15,$16,$1,$2,$17*%
G04 Aperture macros list end*
%ADD10C,0.010000*%
%ADD11RoundRect,0.250000X-0.250000X-0.475000X0.250000X-0.475000X0.250000X0.475000X-0.250000X0.475000X0*%
%ADD12RoundRect,0.085000X0.365000X-0.340000X0.365000X0.340000X-0.365000X0.340000X-0.365000X-0.340000X0*%
%ADD13R,0.900000X0.900000*%
%ADD14R,1.500000X0.900000*%
%ADD15R,0.900000X1.500000*%
%ADD16RoundRect,0.200000X0.200000X0.275000X-0.200000X0.275000X-0.200000X-0.275000X0.200000X-0.275000X0*%
%ADD17RoundRect,0.085000X-0.340000X-0.365000X0.340000X-0.365000X0.340000X0.365000X-0.340000X0.365000X0*%
%ADD18RoundRect,0.085000X0.340000X0.365000X-0.340000X0.365000X-0.340000X-0.365000X0.340000X-0.365000X0*%
%ADD19RoundRect,0.200000X-0.200000X-0.275000X0.200000X-0.275000X0.200000X0.275000X-0.200000X0.275000X0*%
%ADD20RoundRect,0.085000X-0.365000X0.340000X-0.365000X-0.340000X0.365000X-0.340000X0.365000X0.340000X0*%
%ADD21RoundRect,0.218750X0.256250X-0.218750X0.256250X0.218750X-0.256250X0.218750X-0.256250X-0.218750X0*%
%ADD22RoundRect,0.150000X0.150000X0.425000X-0.150000X0.425000X-0.150000X-0.425000X0.150000X-0.425000X0*%
%ADD23RoundRect,0.075000X0.075000X0.500000X-0.075000X0.500000X-0.075000X-0.500000X0.075000X-0.500000X0*%
%ADD24O,1.000000X2.100000*%
%ADD25O,1.000000X1.800000*%
%ADD26RoundRect,0.225000X-0.225000X-0.250000X0.225000X-0.250000X0.225000X0.250000X-0.225000X0.250000X0*%
%ADD27RoundRect,0.250000X1.950000X1.000000X-1.950000X1.000000X-1.950000X-1.000000X1.950000X-1.000000X0*%
%ADD28RoundRect,0.275000X-0.275000X0.275000X-0.275000X-0.275000X0.275000X-0.275000X0.275000X0.275000X0*%
%ADD29RoundRect,0.150000X-0.587500X-0.150000X0.587500X-0.150000X0.587500X0.150000X-0.587500X0.150000X0*%
%ADD30RoundRect,0.127500X0.297500X0.322500X-0.297500X0.322500X-0.297500X-0.322500X0.297500X-0.322500X0*%
%ADD31R,1.400000X1.200000*%
%ADD32R,0.600000X1.550000*%
%ADD33R,3.100000X2.600000*%
%ADD34RoundRect,0.090000X0.210000X-0.410000X0.210000X0.410000X-0.210000X0.410000X-0.210000X-0.410000X0*%
%ADD35R,1.000000X1.050000*%
%ADD36R,1.050000X2.200000*%
%ADD37RoundRect,0.100000X0.400000X0.575000X-0.400000X0.575000X-0.400000X-0.575000X0.400000X-0.575000X0*%
%ADD38RoundRect,0.250000X-1.500000X-0.550000X1.500000X-0.550000X1.500000X0.550000X-1.500000X0.550000X0*%
%ADD39RoundRect,0.200000X0.275000X-0.200000X0.275000X0.200000X-0.275000X0.200000X-0.275000X-0.200000X0*%
%ADD40RoundRect,0.150000X-0.525000X0.350000X-0.525000X-0.350000X0.525000X-0.350000X0.525000X0.350000X0*%
%ADD41RoundRect,0.250000X1.500000X-1.112500X1.500000X1.112500X-1.500000X1.112500X-1.500000X-1.112500X0*%
%ADD42RoundRect,0.112500X0.187500X0.112500X-0.187500X0.112500X-0.187500X-0.112500X0.187500X-0.112500X0*%
%ADD43O,0.600000X1.800000*%
%ADD44O,1.800000X0.600000*%
%ADD45RoundRect,0.250000X-0.475000X0.250000X-0.475000X-0.250000X0.475000X-0.250000X0.475000X0.250000X0*%
%ADD46RoundRect,0.150000X0.587500X0.150000X-0.587500X0.150000X-0.587500X-0.150000X0.587500X-0.150000X0*%
%ADD47RoundRect,0.225000X-0.250000X0.225000X-0.250000X-0.225000X0.250000X-0.225000X0.250000X0.225000X0*%
%ADD48Outline5P,-1.025000X0.000000X-0.725000X0.300000X1.025000X0.300000X1.025000X-0.300000X-1.025000X-0.300000X0.000000*%
%ADD49RoundRect,0.150000X-0.875000X-0.150000X0.875000X-0.150000X0.875000X0.150000X-0.875000X0.150000X0*%
%ADD50RoundRect,0.162500X-0.162500X0.362500X-0.162500X-0.362500X0.162500X-0.362500X0.162500X0.362500X0*%
%ADD51R,1.100000X2.000000*%
%ADD52R,1.100000X2.600000*%
%ADD53C,1.500000*%
%ADD54RoundRect,0.180000X-0.720000X1.020000X-0.720000X-1.020000X0.720000X-1.020000X0.720000X1.020000X0*%
%ADD55RoundRect,0.225000X0.250000X-0.225000X0.250000X0.225000X-0.250000X0.225000X-0.250000X-0.225000X0*%
%ADD56RoundRect,0.075000X-0.075000X0.662500X-0.075000X-0.662500X0.075000X-0.662500X0.075000X0.662500X0*%
%ADD57RoundRect,0.075000X-0.662500X0.075000X-0.662500X-0.075000X0.662500X-0.075000X0.662500X0.075000X0*%
%ADD58RoundRect,0.162500X0.162500X-0.362500X0.162500X0.362500X-0.162500X0.362500X-0.162500X-0.362500X0*%
%ADD59RoundRect,0.225000X0.225000X0.250000X-0.225000X0.250000X-0.225000X-0.250000X0.225000X-0.250000X0*%
%ADD60RoundRect,0.250000X-1.450000X0.312500X-1.450000X-0.312500X1.450000X-0.312500X1.450000X0.312500X0*%
%ADD61RoundRect,0.127500X-0.322500X0.297500X-0.322500X-0.297500X0.322500X-0.297500X0.322500X0.297500X0*%
%ADD62RoundRect,0.100000X-0.400000X-0.575000X0.400000X-0.575000X0.400000X0.575000X-0.400000X0.575000X0*%
%ADD63RoundRect,0.375000X-0.375000X0.625000X-0.375000X-0.625000X0.375000X-0.625000X0.375000X0.625000X0*%
%ADD64RoundRect,0.500000X-1.400000X0.500000X-1.400000X-0.500000X1.400000X-0.500000X1.400000X0.500000X0*%
%ADD65RoundRect,0.200000X-0.275000X0.200000X-0.275000X-0.200000X0.275000X-0.200000X0.275000X0.200000X0*%
%ADD66RoundRect,0.250000X-0.450000X0.350000X-0.450000X-0.350000X0.450000X-0.350000X0.450000X0.350000X0*%
%ADD67RoundRect,0.250000X0.550000X-1.500000X0.550000X1.500000X-0.550000X1.500000X-0.550000X-1.500000X0*%
%ADD68RoundRect,0.150000X0.525000X-0.350000X0.525000X0.350000X-0.525000X0.350000X-0.525000X-0.350000X0*%
%ADD69R,1.050000X1.000000*%
%ADD70R,2.200000X1.050000*%
%ADD71RoundRect,0.150000X0.150000X-0.587500X0.150000X0.587500X-0.150000X0.587500X-0.150000X-0.587500X0*%
%ADD72RoundRect,0.218750X0.218750X0.256250X-0.218750X0.256250X-0.218750X-0.256250X0.218750X-0.256250X0*%
%ADD73R,2.800000X3.500000*%
%ADD74RoundRect,0.647700X-1.155700X-0.647700X1.155700X-0.647700X1.155700X0.647700X-1.155700X0.647700X0*%
G04 APERTURE END LIST*
D10*
%TO.C,D4*%
X260150349Y-243743046D02*
X259401460Y-243743046D01*
X259401460Y-243441500D01*
X260150349Y-243441500D01*
X260150349Y-243743046D01*
G36*
X260150349Y-243743046D02*
G01*
X259401460Y-243743046D01*
X259401460Y-243441500D01*
X260150349Y-243441500D01*
X260150349Y-243743046D01*
G37*
X260151384Y-243091520D02*
X259401460Y-243091520D01*
X259401460Y-242791500D01*
X260151384Y-242791500D01*
X260151384Y-243091520D01*
G36*
X260151384Y-243091520D02*
G01*
X259401460Y-243091520D01*
X259401460Y-242791500D01*
X260151384Y-242791500D01*
X260151384Y-243091520D01*
G37*
X260151417Y-242441463D02*
X259401460Y-242441463D01*
X259401460Y-242141500D01*
X260151417Y-242141500D01*
X260151417Y-242441463D01*
G36*
X260151417Y-242441463D02*
G01*
X259401460Y-242441463D01*
X259401460Y-242141500D01*
X260151417Y-242141500D01*
X260151417Y-242441463D01*
G37*
X262052550Y-242441087D02*
X261301460Y-242441087D01*
X261301460Y-242141500D01*
X262052550Y-242141500D01*
X262052550Y-242441087D01*
G36*
X262052550Y-242441087D02*
G01*
X261301460Y-242441087D01*
X261301460Y-242141500D01*
X262052550Y-242141500D01*
X262052550Y-242441087D01*
G37*
X262052710Y-243091642D02*
X261301460Y-243091642D01*
X261301460Y-242791500D01*
X262052710Y-242791500D01*
X262052710Y-243091642D01*
G36*
X262052710Y-243091642D02*
G01*
X261301460Y-243091642D01*
X261301460Y-242791500D01*
X262052710Y-242791500D01*
X262052710Y-243091642D01*
G37*
X262052380Y-243742055D02*
X261301460Y-243742055D01*
X261301460Y-243441500D01*
X262052380Y-243441500D01*
X262052380Y-243742055D01*
G36*
X262052380Y-243742055D02*
G01*
X261301460Y-243742055D01*
X261301460Y-243441500D01*
X262052380Y-243441500D01*
X262052380Y-243742055D01*
G37*
%TD*%
D11*
%TO.C,C85*%
X204245000Y-224400000D03*
X206145000Y-224400000D03*
%TD*%
D12*
%TO.C,R11*%
X196835000Y-201860000D03*
X196835000Y-200310000D03*
%TD*%
%TO.C,C67*%
X233237500Y-166766250D03*
X233237500Y-165216250D03*
%TD*%
D13*
%TO.C,U1*%
X286850000Y-155560000D03*
X286850000Y-156960000D03*
X286850000Y-158360000D03*
X288250000Y-155560000D03*
X288250000Y-156960000D03*
X288250000Y-158360000D03*
X289650000Y-155560000D03*
X289650000Y-156960000D03*
X289650000Y-158360000D03*
D14*
X281000000Y-149240000D03*
X281000000Y-150510000D03*
X281000000Y-151780000D03*
X281000000Y-153050000D03*
X281000000Y-154320000D03*
X281000000Y-155590000D03*
X281000000Y-156860000D03*
X281000000Y-158130000D03*
X281000000Y-159400000D03*
X281000000Y-160670000D03*
X281000000Y-161940000D03*
X281000000Y-163210000D03*
X281000000Y-164480000D03*
X281000000Y-165750000D03*
D15*
X282765000Y-167000000D03*
X284035000Y-167000000D03*
X285305000Y-167000000D03*
X286575000Y-167000000D03*
X287845000Y-167000000D03*
X289115000Y-167000000D03*
X290385000Y-167000000D03*
X291655000Y-167000000D03*
X292925000Y-167000000D03*
X294195000Y-167000000D03*
X295465000Y-167000000D03*
X296735000Y-167000000D03*
D14*
X298500000Y-165750000D03*
X298500000Y-164480000D03*
X298500000Y-163210000D03*
X298500000Y-161940000D03*
X298500000Y-160670000D03*
X298500000Y-159400000D03*
X298500000Y-158130000D03*
X298500000Y-156860000D03*
X298500000Y-155590000D03*
X298500000Y-154320000D03*
X298500000Y-153050000D03*
X298500000Y-151780000D03*
X298500000Y-150510000D03*
X298500000Y-149240000D03*
%TD*%
D16*
%TO.C,R101*%
X205020000Y-199650000D03*
X203370000Y-199650000D03*
%TD*%
%TO.C,R64*%
X278972033Y-194750000D03*
X277322033Y-194750000D03*
%TD*%
D17*
%TO.C,R80*%
X224087500Y-181991250D03*
X225637500Y-181991250D03*
%TD*%
D18*
%TO.C,R78*%
X243787500Y-177638750D03*
X242237500Y-177638750D03*
%TD*%
D19*
%TO.C,R42*%
X277022033Y-176350000D03*
X278672033Y-176350000D03*
%TD*%
D12*
%TO.C,C70*%
X227237500Y-171516250D03*
X227237500Y-169966250D03*
%TD*%
D17*
%TO.C,R653*%
X276640000Y-164480000D03*
X278190000Y-164480000D03*
%TD*%
%TO.C,R73*%
X233247653Y-188146263D03*
X234797653Y-188146263D03*
%TD*%
D20*
%TO.C,R96*%
X227911842Y-184942804D03*
X227911842Y-186492804D03*
%TD*%
%TO.C,R35*%
X292925000Y-169725000D03*
X292925000Y-171275000D03*
%TD*%
D21*
%TO.C,L4*%
X303640000Y-212000000D03*
X303640000Y-210425000D03*
%TD*%
D22*
%TO.C,J1*%
X258950000Y-148430000D03*
X258150000Y-148430000D03*
D23*
X257000000Y-148430000D03*
X256000000Y-148430000D03*
X255500000Y-148430000D03*
X254500000Y-148430000D03*
D22*
X253350000Y-148430000D03*
X252550000Y-148430000D03*
X252550000Y-148430000D03*
X253350000Y-148430000D03*
D23*
X254000000Y-148430000D03*
X255000000Y-148430000D03*
X256500000Y-148430000D03*
X257500000Y-148430000D03*
D22*
X258150000Y-148430000D03*
X258950000Y-148430000D03*
D24*
X260070000Y-147855000D03*
D25*
X260070000Y-143675000D03*
D24*
X251430000Y-147855000D03*
D25*
X251430000Y-143675000D03*
%TD*%
D26*
%TO.C,C86*%
X309845000Y-212007500D03*
X311395000Y-212007500D03*
%TD*%
D18*
%TO.C,R12*%
X184437816Y-211753184D03*
X182887816Y-211753184D03*
%TD*%
D27*
%TO.C,C8*%
X201950000Y-183250000D03*
X193550000Y-183250000D03*
%TD*%
D17*
%TO.C,C61*%
X224087500Y-177941250D03*
X225637500Y-177941250D03*
%TD*%
D12*
%TO.C,C36*%
X277940000Y-150466172D03*
X277940000Y-148916172D03*
%TD*%
D28*
%TO.C,D3*%
X261255000Y-227980000D03*
X261255000Y-224580000D03*
%TD*%
D29*
%TO.C,Q3*%
X280497033Y-182350000D03*
X280497033Y-184250000D03*
X282372033Y-183300000D03*
%TD*%
D12*
%TO.C,R88*%
X230487500Y-169516250D03*
X230487500Y-167966250D03*
%TD*%
D26*
%TO.C,C45*%
X273200000Y-238675000D03*
X274750000Y-238675000D03*
%TD*%
D30*
%TO.C,LE3*%
X180720939Y-239252228D03*
X182270939Y-239252228D03*
%TD*%
D12*
%TO.C,R84*%
X233237500Y-169516250D03*
X233237500Y-167966250D03*
%TD*%
D20*
%TO.C,R14*%
X198838348Y-245395486D03*
X198838348Y-246945486D03*
%TD*%
D19*
%TO.C,R56*%
X255651460Y-242941500D03*
X257301460Y-242941500D03*
%TD*%
D31*
%TO.C,Y2*%
X232922653Y-192746263D03*
X235122653Y-192746263D03*
X235122653Y-191046263D03*
X232922653Y-191046263D03*
%TD*%
D12*
%TO.C,R85*%
X231862500Y-169516250D03*
X231862500Y-167966250D03*
%TD*%
%TO.C,R95*%
X235987500Y-169516250D03*
X235987500Y-167966250D03*
%TD*%
%TO.C,R17*%
X245720001Y-240977500D03*
X245720001Y-239427500D03*
%TD*%
D32*
%TO.C,U7*%
X190500000Y-211750000D03*
X189230000Y-211750000D03*
X187960000Y-211750000D03*
X186690000Y-211750000D03*
X186690000Y-217150000D03*
X187960000Y-217150000D03*
X189230000Y-217150000D03*
X190500000Y-217150000D03*
D33*
X188595000Y-214450000D03*
%TD*%
D34*
%TO.C,D1*%
X243100000Y-219320558D03*
X245000000Y-219320558D03*
X244050000Y-217045558D03*
%TD*%
D35*
%TO.C,J10*%
X293731087Y-248579504D03*
D36*
X292256087Y-250104504D03*
X295206087Y-250104504D03*
%TD*%
D18*
%TO.C,R13*%
X184437816Y-213088184D03*
X182887816Y-213088184D03*
%TD*%
D17*
%TO.C,C253*%
X284234533Y-194200000D03*
X285784533Y-194200000D03*
%TD*%
D37*
%TO.C,FB1*%
X225637500Y-172991250D03*
X223737500Y-172991250D03*
%TD*%
D12*
%TO.C,C16*%
X197588348Y-246970486D03*
X197588348Y-245420486D03*
%TD*%
D38*
%TO.C,C83*%
X204295000Y-217650000D03*
X209695000Y-217650000D03*
%TD*%
D11*
%TO.C,C84*%
X204245000Y-222400000D03*
X206145000Y-222400000D03*
%TD*%
D39*
%TO.C,R47*%
X274750000Y-242000000D03*
X274750000Y-240350000D03*
%TD*%
D17*
%TO.C,C20*%
X316225000Y-178800000D03*
X317775000Y-178800000D03*
%TD*%
D40*
%TO.C,C10*%
X194487643Y-213275000D03*
X194487643Y-215175000D03*
%TD*%
D12*
%TO.C,C35*%
X276690000Y-150466172D03*
X276690000Y-148916172D03*
%TD*%
%TO.C,C33*%
X302500000Y-153460000D03*
X302500000Y-151910000D03*
%TD*%
D29*
%TO.C,Q2*%
X280522033Y-176350000D03*
X280522033Y-178250000D03*
X282397033Y-177300000D03*
%TD*%
D20*
%TO.C,C27*%
X241580834Y-239427500D03*
X241580834Y-240977500D03*
%TD*%
D17*
%TO.C,C251*%
X277122033Y-189793235D03*
X278672033Y-189793235D03*
%TD*%
D41*
%TO.C,C22*%
X263760000Y-175642500D03*
X263760000Y-169917500D03*
%TD*%
D19*
%TO.C,R48*%
X284175000Y-187772341D03*
X285825000Y-187772341D03*
%TD*%
D17*
%TO.C,C600*%
X284122033Y-176250000D03*
X285672033Y-176250000D03*
%TD*%
D18*
%TO.C,R79*%
X243787500Y-176256250D03*
X242237500Y-176256250D03*
%TD*%
%TO.C,R68*%
X243787500Y-174873750D03*
X242237500Y-174873750D03*
%TD*%
D42*
%TO.C,D60*%
X286222033Y-178000000D03*
X284122033Y-178000000D03*
%TD*%
D18*
%TO.C,R1*%
X244650000Y-220965000D03*
X243100000Y-220965000D03*
%TD*%
D43*
%TO.C,IC2*%
X294750000Y-205400000D03*
X293750000Y-205400000D03*
X292750000Y-205400000D03*
X291750000Y-205400000D03*
X290750000Y-205400000D03*
X289750000Y-205400000D03*
X288750000Y-205400000D03*
X287750000Y-205400000D03*
X286750000Y-205400000D03*
X285750000Y-205400000D03*
X284750000Y-205400000D03*
X283750000Y-205400000D03*
X282750000Y-205400000D03*
X281750000Y-205400000D03*
X280750000Y-205400000D03*
X279750000Y-205400000D03*
X278750000Y-205400000D03*
X277750000Y-205400000D03*
X276750000Y-205400000D03*
X275750000Y-205400000D03*
D44*
X270150000Y-211000000D03*
X270150000Y-212000000D03*
X270150000Y-213000000D03*
X270150000Y-214000000D03*
X270150000Y-215000000D03*
X270150000Y-216000000D03*
X270150000Y-217000000D03*
X270150000Y-218000000D03*
X270150000Y-219000000D03*
X270150000Y-220000000D03*
X270150000Y-221000000D03*
X270150000Y-222000000D03*
X270150000Y-223000000D03*
X270150000Y-224000000D03*
X270150000Y-225000000D03*
X270150000Y-226000000D03*
X270150000Y-227000000D03*
X270150000Y-228000000D03*
X270150000Y-229000000D03*
X270150000Y-230000000D03*
D43*
X275750000Y-235600000D03*
X276750000Y-235600000D03*
X277750000Y-235600000D03*
X278750000Y-235600000D03*
X279750000Y-235600000D03*
X280750000Y-235600000D03*
X281750000Y-235600000D03*
X282750000Y-235600000D03*
X283750000Y-235600000D03*
X284750000Y-235600000D03*
X285750000Y-235600000D03*
X286750000Y-235600000D03*
X287750000Y-235600000D03*
X288750000Y-235600000D03*
X289750000Y-235600000D03*
X290750000Y-235600000D03*
X291750000Y-235600000D03*
X292750000Y-235600000D03*
X293750000Y-235600000D03*
X294750000Y-235600000D03*
D44*
X300350000Y-230000000D03*
X300350000Y-229000000D03*
X300350000Y-228000000D03*
X300350000Y-227000000D03*
X300350000Y-226000000D03*
X300350000Y-225000000D03*
X300350000Y-224000000D03*
X300350000Y-223000000D03*
X300350000Y-222000000D03*
X300350000Y-221000000D03*
X300350000Y-220000000D03*
X300350000Y-219000000D03*
X300350000Y-218000000D03*
X300350000Y-217000000D03*
X300350000Y-216000000D03*
X300350000Y-215000000D03*
X300350000Y-214000000D03*
X300350000Y-213000000D03*
X300350000Y-212000000D03*
X300350000Y-211000000D03*
D43*
X274750000Y-205400000D03*
X274750000Y-235600000D03*
D44*
X270150000Y-231000000D03*
X270150000Y-210000000D03*
D43*
X295750000Y-235600000D03*
D44*
X300350000Y-210000000D03*
X300350000Y-231000000D03*
%TD*%
D45*
%TO.C,C81*%
X213585000Y-198375000D03*
X213585000Y-200275000D03*
%TD*%
D18*
%TO.C,C14*%
X194720000Y-217150000D03*
X193170000Y-217150000D03*
%TD*%
D46*
%TO.C,Q8*%
X282584533Y-195700000D03*
X282584533Y-193800000D03*
X280709533Y-194750000D03*
%TD*%
D21*
%TO.C,L3*%
X308290000Y-212007500D03*
X308290000Y-210432500D03*
%TD*%
D47*
%TO.C,C90*%
X303430000Y-228085000D03*
X303430000Y-229635000D03*
%TD*%
D26*
%TO.C,C42*%
X292225000Y-243550000D03*
X293775000Y-243550000D03*
%TD*%
D21*
%TO.C,L5*%
X313010000Y-213582500D03*
X313010000Y-212007500D03*
%TD*%
D48*
%TO.C,IC1*%
X231700000Y-214500000D03*
D49*
X231700000Y-215770000D03*
X231700000Y-217040000D03*
X231700000Y-218310000D03*
X231700000Y-219580000D03*
X231700000Y-220850000D03*
X231700000Y-222120000D03*
X231700000Y-223390000D03*
X241000000Y-223390000D03*
X241000000Y-222120000D03*
X241000000Y-220850000D03*
X241000000Y-219580000D03*
X241000000Y-218310000D03*
X241000000Y-217040000D03*
X241000000Y-215770000D03*
X241000000Y-214500000D03*
%TD*%
D20*
%TO.C,C2*%
X228233335Y-214233058D03*
X228233335Y-215783058D03*
%TD*%
D12*
%TO.C,R63*%
X240022500Y-188266250D03*
X240022500Y-186716250D03*
%TD*%
%TO.C,C34*%
X277949449Y-153215000D03*
X277949449Y-151665000D03*
%TD*%
%TO.C,R19*%
X237441668Y-240977500D03*
X237441668Y-239427500D03*
%TD*%
D17*
%TO.C,C13*%
X185920000Y-239100000D03*
X187470000Y-239100000D03*
%TD*%
D38*
%TO.C,C17*%
X185745000Y-233100000D03*
X191145000Y-233100000D03*
%TD*%
D17*
%TO.C,C58*%
X230886085Y-186383962D03*
X232436085Y-186383962D03*
%TD*%
D50*
%TO.C,SW1*%
X308190000Y-149437500D03*
X308190000Y-154087500D03*
X306040000Y-149437500D03*
X306040000Y-154087500D03*
%TD*%
D17*
%TO.C,C59*%
X224087500Y-180641250D03*
X225637500Y-180641250D03*
%TD*%
D18*
%TO.C,R75*%
X243787500Y-180403750D03*
X242237500Y-180403750D03*
%TD*%
D51*
%TO.C,U8*%
X320250000Y-181000000D03*
X318250000Y-181000000D03*
D52*
X316250000Y-181300000D03*
X314250000Y-181300000D03*
X312250000Y-181300000D03*
X310250000Y-181300000D03*
X308250000Y-181300000D03*
X306250000Y-181300000D03*
X306250000Y-196700000D03*
X308250000Y-196700000D03*
X310250000Y-196700000D03*
X312250000Y-196700000D03*
X314250000Y-196700000D03*
X316250000Y-196700000D03*
X318250000Y-196700000D03*
X320250000Y-196700000D03*
D53*
X318950000Y-183700000D03*
%TD*%
D18*
%TO.C,C71*%
X225637500Y-179291250D03*
X224087500Y-179291250D03*
%TD*%
D12*
%TO.C,R90*%
X230487500Y-166766250D03*
X230487500Y-165216250D03*
%TD*%
D54*
%TO.C,D2*%
X196005000Y-226952500D03*
X196005000Y-222902500D03*
%TD*%
D17*
%TO.C,C57*%
X230892500Y-185086250D03*
X232442500Y-185086250D03*
%TD*%
D54*
%TO.C,D7*%
X215185000Y-213312500D03*
X215185000Y-209262500D03*
%TD*%
D18*
%TO.C,R66*%
X243787500Y-172108750D03*
X242237500Y-172108750D03*
%TD*%
D19*
%TO.C,R57*%
X255651460Y-241191500D03*
X257301460Y-241191500D03*
%TD*%
D55*
%TO.C,C48*%
X267750000Y-228000000D03*
X267750000Y-226450000D03*
%TD*%
D56*
%TO.C,U9*%
X236837500Y-173087500D03*
X236337500Y-173087500D03*
X235837500Y-173087500D03*
X235337500Y-173087500D03*
X234837500Y-173087500D03*
X234337500Y-173087500D03*
X233837500Y-173087500D03*
X233337500Y-173087500D03*
X232837500Y-173087500D03*
X232337500Y-173087500D03*
X231837500Y-173087500D03*
X231337500Y-173087500D03*
D57*
X229925000Y-174500000D03*
X229925000Y-175000000D03*
X229925000Y-175500000D03*
X229925000Y-176000000D03*
X229925000Y-176500000D03*
X229925000Y-177000000D03*
X229925000Y-177500000D03*
X229925000Y-178000000D03*
X229925000Y-178500000D03*
X229925000Y-179000000D03*
X229925000Y-179500000D03*
X229925000Y-180000000D03*
D56*
X231337500Y-181412500D03*
X231837500Y-181412500D03*
X232337500Y-181412500D03*
X232837500Y-181412500D03*
X233337500Y-181412500D03*
X233837500Y-181412500D03*
X234337500Y-181412500D03*
X234837500Y-181412500D03*
X235337500Y-181412500D03*
X235837500Y-181412500D03*
X236337500Y-181412500D03*
X236837500Y-181412500D03*
D57*
X238250000Y-180000000D03*
X238250000Y-179500000D03*
X238250000Y-179000000D03*
X238250000Y-178500000D03*
X238250000Y-178000000D03*
X238250000Y-177500000D03*
X238250000Y-177000000D03*
X238250000Y-176500000D03*
X238250000Y-176000000D03*
X238250000Y-175500000D03*
X238250000Y-175000000D03*
X238250000Y-174500000D03*
%TD*%
D58*
%TO.C,SW2*%
X270590000Y-154062500D03*
X270590000Y-149412500D03*
X272740000Y-154062500D03*
X272740000Y-149412500D03*
%TD*%
D12*
%TO.C,C15*%
X196338348Y-246970486D03*
X196338348Y-245420486D03*
%TD*%
D20*
%TO.C,R24*%
X303750000Y-151910000D03*
X303750000Y-153460000D03*
%TD*%
D45*
%TO.C,C80*%
X215945000Y-198375000D03*
X215945000Y-200275000D03*
%TD*%
D12*
%TO.C,R18*%
X240201112Y-240977500D03*
X240201112Y-239427500D03*
%TD*%
D39*
%TO.C,R82*%
X313010000Y-216765000D03*
X313010000Y-215115000D03*
%TD*%
D16*
%TO.C,R59*%
X265626460Y-243941500D03*
X263976460Y-243941500D03*
%TD*%
D19*
%TO.C,R102*%
X207620000Y-226043750D03*
X209270000Y-226043750D03*
%TD*%
D59*
%TO.C,C49*%
X257251460Y-244691500D03*
X255701460Y-244691500D03*
%TD*%
D40*
%TO.C,C11*%
X192635000Y-213275000D03*
X192635000Y-215175000D03*
%TD*%
D12*
%TO.C,R86*%
X239237500Y-169516250D03*
X239237500Y-167966250D03*
%TD*%
D20*
%TO.C,R92*%
X237487500Y-165216250D03*
X237487500Y-166766250D03*
%TD*%
D12*
%TO.C,R69*%
X237487500Y-188266250D03*
X237487500Y-186716250D03*
%TD*%
D20*
%TO.C,R654*%
X257860000Y-152080000D03*
X257860000Y-153630000D03*
%TD*%
D19*
%TO.C,R39*%
X277097033Y-182349689D03*
X278747033Y-182349689D03*
%TD*%
D60*
%TO.C,F2*%
X202000000Y-172112500D03*
X202000000Y-176387500D03*
%TD*%
D12*
%TO.C,C63*%
X228987500Y-166766250D03*
X228987500Y-165216250D03*
%TD*%
%TO.C,R65*%
X241290000Y-188266250D03*
X241290000Y-186716250D03*
%TD*%
D39*
%TO.C,R45*%
X274750000Y-246750000D03*
X274750000Y-245100000D03*
%TD*%
D42*
%TO.C,D61*%
X286172033Y-184100000D03*
X284072033Y-184100000D03*
%TD*%
D61*
%TO.C,LE2*%
X200351377Y-246945486D03*
X200351377Y-245395486D03*
%TD*%
D20*
%TO.C,C1*%
X229500000Y-214228058D03*
X229500000Y-215778058D03*
%TD*%
D39*
%TO.C,R40*%
X293731087Y-246875000D03*
X293731087Y-245225000D03*
%TD*%
D12*
%TO.C,R34*%
X286625000Y-171250000D03*
X286625000Y-169700000D03*
%TD*%
D18*
%TO.C,C73*%
X225637500Y-175241250D03*
X224087500Y-175241250D03*
%TD*%
D16*
%TO.C,R100*%
X205020000Y-198115000D03*
X203370000Y-198115000D03*
%TD*%
%TO.C,R58*%
X265626460Y-242191500D03*
X263976460Y-242191500D03*
%TD*%
D62*
%TO.C,L6*%
X248880000Y-227980000D03*
X250780000Y-227980000D03*
%TD*%
D12*
%TO.C,C68*%
X231862500Y-166766250D03*
X231862500Y-165216250D03*
%TD*%
D18*
%TO.C,C56*%
X236347653Y-189472917D03*
X234797653Y-189472917D03*
%TD*%
D63*
%TO.C,U4*%
X194245000Y-239100000D03*
X191945000Y-239100000D03*
D64*
X191945000Y-245400000D03*
D63*
X189645000Y-239100000D03*
%TD*%
D17*
%TO.C,C21*%
X316225000Y-177550000D03*
X317775000Y-177550000D03*
%TD*%
D20*
%TO.C,C69*%
X228737500Y-171516250D03*
X228737500Y-173066250D03*
%TD*%
D12*
%TO.C,R87*%
X237737500Y-169516250D03*
X237737500Y-167966250D03*
%TD*%
D65*
%TO.C,R61*%
X264500000Y-220000000D03*
X264500000Y-221650000D03*
%TD*%
D66*
%TO.C,R651*%
X259614569Y-152394853D03*
X259614569Y-154394853D03*
%TD*%
D17*
%TO.C,R652*%
X276645000Y-165750000D03*
X278195000Y-165750000D03*
%TD*%
D39*
%TO.C,R62*%
X263000000Y-214262500D03*
X263000000Y-212612500D03*
%TD*%
D26*
%TO.C,C44*%
X273200000Y-243575000D03*
X274750000Y-243575000D03*
%TD*%
%TO.C,C46*%
X305195000Y-212000000D03*
X306745000Y-212000000D03*
%TD*%
D20*
%TO.C,R33*%
X286630000Y-172485000D03*
X286630000Y-174035000D03*
%TD*%
D12*
%TO.C,R21*%
X242960557Y-240977500D03*
X242960557Y-239427500D03*
%TD*%
D16*
%TO.C,R46*%
X278672033Y-178050000D03*
X277022033Y-178050000D03*
%TD*%
D18*
%TO.C,C72*%
X225637500Y-176591250D03*
X224087500Y-176591250D03*
%TD*%
D12*
%TO.C,R20*%
X238821390Y-240977500D03*
X238821390Y-239427500D03*
%TD*%
D39*
%TO.C,R44*%
X293750000Y-241875000D03*
X293750000Y-240225000D03*
%TD*%
D18*
%TO.C,C250*%
X285827659Y-189222341D03*
X284277659Y-189222341D03*
%TD*%
%TO.C,R74*%
X243787500Y-181786250D03*
X242237500Y-181786250D03*
%TD*%
D16*
%TO.C,R41*%
X278747033Y-184099689D03*
X277097033Y-184099689D03*
%TD*%
%TO.C,R49*%
X278772033Y-188300000D03*
X277122033Y-188300000D03*
%TD*%
D12*
%TO.C,C66*%
X223737500Y-171516250D03*
X223737500Y-169966250D03*
%TD*%
D17*
%TO.C,C12*%
X185920750Y-237783389D03*
X187470750Y-237783389D03*
%TD*%
D12*
%TO.C,R70*%
X238755000Y-188266250D03*
X238755000Y-186716250D03*
%TD*%
D18*
%TO.C,R15*%
X182295000Y-237690000D03*
X180745000Y-237690000D03*
%TD*%
%TO.C,R76*%
X243787500Y-179021250D03*
X242237500Y-179021250D03*
%TD*%
D20*
%TO.C,R25*%
X276687949Y-151657344D03*
X276687949Y-153207344D03*
%TD*%
D26*
%TO.C,C43*%
X292200000Y-238550000D03*
X293750000Y-238550000D03*
%TD*%
D20*
%TO.C,R97*%
X229161842Y-184942804D03*
X229161842Y-186492804D03*
%TD*%
D18*
%TO.C,R72*%
X243787500Y-184491250D03*
X242237500Y-184491250D03*
%TD*%
D12*
%TO.C,R89*%
X234612500Y-166766250D03*
X234612500Y-165216250D03*
%TD*%
D59*
%TO.C,C82*%
X214668518Y-203504900D03*
X213118518Y-203504900D03*
%TD*%
D26*
%TO.C,C41*%
X280750000Y-202500000D03*
X282300000Y-202500000D03*
%TD*%
D67*
%TO.C,C23*%
X256100000Y-227980000D03*
X256100000Y-222580000D03*
%TD*%
D68*
%TO.C,C18*%
X182505645Y-233094716D03*
X182505645Y-231194716D03*
%TD*%
D21*
%TO.C,LE5*%
X264739092Y-214196803D03*
X264739092Y-212621803D03*
%TD*%
D20*
%TO.C,C74*%
X221460000Y-154445000D03*
X221460000Y-155995000D03*
%TD*%
D46*
%TO.C,Q1*%
X282372033Y-189250000D03*
X282372033Y-187350000D03*
X280497033Y-188300000D03*
%TD*%
D66*
%TO.C,R650*%
X253440000Y-152460000D03*
X253440000Y-154460000D03*
%TD*%
D12*
%TO.C,R29*%
X244340279Y-240977500D03*
X244340279Y-239427500D03*
%TD*%
D17*
%TO.C,C601*%
X284072033Y-182350000D03*
X285622033Y-182350000D03*
%TD*%
D18*
%TO.C,R67*%
X243787500Y-173491250D03*
X242237500Y-173491250D03*
%TD*%
%TO.C,R71*%
X243787500Y-183168750D03*
X242237500Y-183168750D03*
%TD*%
D61*
%TO.C,LE1*%
X196835000Y-198560000D03*
X196835000Y-197010000D03*
%TD*%
D69*
%TO.C,J12*%
X318224330Y-212007500D03*
D70*
X319749330Y-213482500D03*
X319749330Y-210532500D03*
%TD*%
D20*
%TO.C,R93*%
X239487500Y-165216250D03*
X239487500Y-166766250D03*
%TD*%
D71*
%TO.C,Q4*%
X262760902Y-217962500D03*
X264660902Y-217962500D03*
X263710902Y-216087500D03*
%TD*%
D17*
%TO.C,R250*%
X284234533Y-195700000D03*
X285784533Y-195700000D03*
%TD*%
D27*
%TO.C,C9*%
X193785000Y-204360000D03*
X185385000Y-204360000D03*
%TD*%
D72*
%TO.C,LE8*%
X209232500Y-224400000D03*
X207657500Y-224400000D03*
%TD*%
D27*
%TO.C,C79*%
X215945000Y-190660000D03*
X207545000Y-190660000D03*
%TD*%
D73*
%TO.C,L1*%
X191545000Y-222850000D03*
X184945000Y-222850000D03*
%TD*%
D17*
%TO.C,C55*%
X231697653Y-189466250D03*
X233247653Y-189466250D03*
%TD*%
D68*
%TO.C,C19*%
X180615155Y-233086820D03*
X180615155Y-231186820D03*
%TD*%
D39*
%TO.C,R60*%
X262721804Y-221650000D03*
X262721804Y-220000000D03*
%TD*%
D74*
%TO.C,BT1*%
X244199400Y-205593056D03*
X228400600Y-205593056D03*
%TD*%
D73*
%TO.C,L2*%
X210595000Y-209250000D03*
X203995000Y-209250000D03*
%TD*%
D12*
%TO.C,C65*%
X234612500Y-169516250D03*
X234612500Y-167966250D03*
%TD*%
D35*
%TO.C,J11*%
X274750000Y-248474330D03*
D36*
X273275000Y-249999330D03*
X276225000Y-249999330D03*
%TD*%
D32*
%TO.C,U11*%
X211000000Y-198100000D03*
X209730000Y-198100000D03*
X208460000Y-198100000D03*
X207190000Y-198100000D03*
X207190000Y-203500000D03*
X208460000Y-203500000D03*
X209730000Y-203500000D03*
X211000000Y-203500000D03*
D33*
X209095000Y-200800000D03*
%TD*%
M02*
