%TF.GenerationSoftware,KiCad,Pcbnew,9.0.0*%
%TF.CreationDate,2026-03-27T21:54:03+07:00*%
%TF.ProjectId,Gateway_Schematic_V3,47617465-7761-4795-9f53-6368656d6174,rev?*%
%TF.SameCoordinates,Original*%
%TF.FileFunction,Soldermask,Bot*%
%TF.FilePolarity,Negative*%
%FSLAX46Y46*%
G04 Gerber Fmt 4.6, Leading zero omitted, Abs format (unit mm)*
G04 Created by KiCad (PCBNEW 9.0.0) date 2026-03-27 21:54:03*
%MOMM*%
%LPD*%
G01*
G04 APERTURE LIST*
G04 Aperture macros list*
%AMOutline4P*
0 Free polygon, 4 corners , with rotation*
0 The origin of the aperture is its center*
0 number of corners: always 4*
0 $1 to $8 corner X, Y*
0 $9 Rotation angle, in degrees counterclockwise*
0 create outline with 4 corners*
4,1,4,$1,$2,$3,$4,$5,$6,$7,$8,$1,$2,$9*%
G04 Aperture macros list end*
%ADD10C,0.800000*%
%ADD11C,0.650000*%
%ADD12O,1.000000X2.100000*%
%ADD13O,1.000000X1.800000*%
%ADD14C,2.200000*%
%ADD15Outline4P,-0.750000X-0.750000X0.750000X-0.750000X0.750000X0.750000X-0.750000X0.750000X0.000000*%
%ADD16C,1.500000*%
%ADD17O,2.500000X2.500000*%
%ADD18C,6.400000*%
%ADD19O,0.800000X0.800000*%
%ADD20C,1.800000*%
%ADD21C,1.600000*%
%ADD22O,2.800000X1.800000*%
%ADD23R,1.700000X1.700000*%
%ADD24O,1.700000X1.700000*%
%ADD25C,1.700000*%
%ADD26C,1.524000*%
%ADD27C,3.250000*%
%ADD28R,1.500000X1.500000*%
%ADD29C,1.244600*%
%ADD30C,0.950000*%
%ADD31R,0.620000X1.400000*%
%ADD32R,1.100000X2.400000*%
%ADD33C,0.750000*%
%ADD34C,1.200000*%
%ADD35R,0.800000X1.140000*%
%ADD36R,0.700000X2.100000*%
G04 APERTURE END LIST*
D10*
%TO.C,CLK0*%
X245620000Y-168990000D03*
%TD*%
%TO.C,CS*%
X316970000Y-202280000D03*
%TD*%
%TO.C,MISO*%
X314430000Y-202280000D03*
%TD*%
%TO.C,RX0*%
X295030000Y-191580000D03*
%TD*%
%TO.C,+1.8V1*%
X310750000Y-232850000D03*
%TD*%
%TO.C,CS0*%
X245620000Y-166450000D03*
%TD*%
%TO.C,VDD_AUX1*%
X310750000Y-235750000D03*
%TD*%
D11*
%TO.C,J1*%
X258640000Y-147355000D03*
X252860000Y-147355000D03*
D12*
X260070000Y-147855000D03*
D13*
X260070000Y-143675000D03*
D12*
X251430000Y-147855000D03*
D13*
X251430000Y-143675000D03*
%TD*%
D10*
%TO.C,GND0*%
X245620000Y-158830000D03*
%TD*%
D14*
%TO.C,C6*%
X159700000Y-183200000D03*
X144700000Y-183200000D03*
%TD*%
D15*
%TO.C,FL1*%
X148250000Y-188800000D03*
D16*
X156250000Y-195800000D03*
X156250000Y-188800000D03*
X148250000Y-195800000D03*
%TD*%
D17*
%TO.C,PS2*%
X145250000Y-156250000D03*
X145250000Y-165250000D03*
X196250000Y-147250000D03*
X196250000Y-174250000D03*
%TD*%
D10*
%TO.C,GND1*%
X301100000Y-194110000D03*
%TD*%
%TO.C,H1*%
X133840000Y-245160000D03*
X134542944Y-243462944D03*
X134542944Y-246857056D03*
X136240000Y-242760000D03*
D18*
X136240000Y-245160000D03*
D10*
X136240000Y-247560000D03*
X137937056Y-243462944D03*
X137937056Y-246857056D03*
X138640000Y-245160000D03*
%TD*%
%TO.C,MOSI*%
X311890000Y-202280000D03*
%TD*%
D19*
%TO.C,J3*%
X149010000Y-237890000D03*
X158510000Y-237890000D03*
X168010000Y-237890000D03*
%TD*%
D20*
%TO.C,RV1*%
X159200000Y-213700000D03*
X156500000Y-221200000D03*
%TD*%
D10*
%TO.C,GND0*%
X248320000Y-215280000D03*
%TD*%
%TO.C,ESP_SDA0*%
X248320000Y-212740000D03*
%TD*%
%TO.C,TX0*%
X295030000Y-189050000D03*
%TD*%
%TO.C,H1*%
X315850000Y-245160000D03*
X316552944Y-243462944D03*
X316552944Y-246857056D03*
X318250000Y-242760000D03*
D18*
X318250000Y-245160000D03*
D10*
X318250000Y-247560000D03*
X319947056Y-243462944D03*
X319947056Y-246857056D03*
X320650000Y-245160000D03*
%TD*%
%TO.C,PWRKEY1*%
X305710000Y-214810000D03*
%TD*%
%TO.C,MOSI0*%
X245620000Y-161370000D03*
%TD*%
D21*
%TO.C,C5*%
X162810000Y-189540000D03*
X162810000Y-194540000D03*
%TD*%
D10*
%TO.C,RESET1*%
X305710000Y-217506667D03*
%TD*%
%TO.C,ESP_SCL0*%
X248320000Y-210200000D03*
%TD*%
%TO.C,TX1*%
X301100000Y-189050000D03*
%TD*%
D22*
%TO.C,F1*%
X149200000Y-222450000D03*
X149200000Y-199700000D03*
%TD*%
D21*
%TO.C,C7*%
X141660000Y-194570000D03*
X141660000Y-189570000D03*
%TD*%
D10*
%TO.C,SCK*%
X309350000Y-202280000D03*
%TD*%
%TO.C,+4V*%
X213860000Y-224560000D03*
%TD*%
D23*
%TO.C,J2*%
X263730000Y-189340000D03*
D24*
X263730000Y-186800000D03*
D25*
X263730000Y-184260000D03*
D26*
X263730000Y-181720000D03*
%TD*%
D10*
%TO.C,H1*%
X315850000Y-148150000D03*
X316552944Y-146452944D03*
X316552944Y-149847056D03*
X318250000Y-145750000D03*
D18*
X318250000Y-148150000D03*
D10*
X318250000Y-150550000D03*
X319947056Y-146452944D03*
X319947056Y-149847056D03*
X320650000Y-148150000D03*
%TD*%
%TO.C,GND*%
X295030000Y-194110000D03*
%TD*%
%TO.C,H1*%
X133840000Y-148160000D03*
X134542944Y-146462944D03*
X134542944Y-149857056D03*
X136240000Y-145760000D03*
D18*
X136240000Y-148160000D03*
D10*
X136240000Y-150560000D03*
X137937056Y-146462944D03*
X137937056Y-149857056D03*
X138640000Y-148160000D03*
%TD*%
%TO.C,RXD1*%
X305710000Y-222900000D03*
%TD*%
%TO.C,RX1*%
X301100000Y-191580000D03*
%TD*%
%TO.C,+5V*%
X219250000Y-233070000D03*
%TD*%
%TO.C,GND*%
X319510000Y-202280000D03*
%TD*%
%TO.C,TXD1*%
X305710000Y-220203333D03*
%TD*%
%TO.C,MISO0*%
X245620000Y-163910000D03*
%TD*%
D27*
%TO.C,J17*%
X228522500Y-151391250D03*
X239952500Y-151391250D03*
D28*
X238687500Y-157741250D03*
D16*
X237417500Y-160281250D03*
X236147500Y-157741250D03*
X234877500Y-160281250D03*
X233607500Y-157741250D03*
X232337500Y-160281250D03*
X231067500Y-157741250D03*
X229797500Y-160281250D03*
D20*
X240862500Y-146491250D03*
X238322500Y-146491250D03*
X230152500Y-146491250D03*
X227612500Y-146491250D03*
D19*
X226492500Y-154441250D03*
X241982500Y-154441250D03*
%TD*%
D23*
%TO.C,J6*%
X317250000Y-170410000D03*
D24*
X317250000Y-167870000D03*
X317250000Y-165330000D03*
X317250000Y-162790000D03*
X317250000Y-160250000D03*
X317250000Y-157710000D03*
X317250000Y-155170000D03*
%TD*%
D10*
%TO.C,BT1*%
X232553500Y-205593056D03*
D29*
X240046500Y-205593056D03*
%TD*%
D30*
%TO.C,J5*%
X244100000Y-245000000D03*
X236100000Y-245000000D03*
D31*
X236920000Y-233775000D03*
X238020000Y-233775000D03*
X239120000Y-233775000D03*
X240220000Y-233775000D03*
X241320000Y-233775000D03*
X242420000Y-233775000D03*
X243520000Y-233775000D03*
X244620000Y-233775000D03*
X245720000Y-233775000D03*
D32*
X247100000Y-244580000D03*
X247100000Y-235400000D03*
X232000000Y-235325000D03*
X231025000Y-244575000D03*
%TD*%
D33*
%TO.C,J14*%
X264105696Y-246012500D03*
D34*
X262775696Y-247062500D03*
X262775696Y-239662500D03*
X260235696Y-247062500D03*
X260235696Y-239662500D03*
X257695696Y-247062500D03*
X257695696Y-239662500D03*
D33*
X255605696Y-246012500D03*
D35*
X258855696Y-233782500D03*
X261395696Y-233782500D03*
X263935696Y-233782500D03*
X257585696Y-233782500D03*
X260125696Y-233782500D03*
X262665696Y-233782500D03*
X256635696Y-233782500D03*
D36*
X265605696Y-235262500D03*
X252605696Y-235262500D03*
X265605696Y-247262500D03*
X252605696Y-247262500D03*
%TD*%
M02*
