%TF.GenerationSoftware,KiCad,Pcbnew,9.0.0*%
%TF.CreationDate,2026-03-27T21:54:03+07:00*%
%TF.ProjectId,Gateway_Schematic_V3,47617465-7761-4795-9f53-6368656d6174,rev?*%
%TF.SameCoordinates,Original*%
%TF.FileFunction,Legend,Bot*%
%TF.FilePolarity,Positive*%
%FSLAX46Y46*%
G04 Gerber Fmt 4.6, Leading zero omitted, Abs format (unit mm)*
G04 Created by KiCad (PCBNEW 9.0.0) date 2026-03-27 21:54:03*
%MOMM*%
%LPD*%
G01*
G04 APERTURE LIST*
%ADD10C,0.500000*%
%ADD11C,0.200000*%
%ADD12C,0.150000*%
%ADD13C,0.250000*%
%ADD14C,0.127000*%
G04 APERTURE END LIST*
D10*
X230274862Y-192279462D02*
X230274862Y-190279462D01*
X230274862Y-190279462D02*
X229798672Y-190279462D01*
X229798672Y-190279462D02*
X229512957Y-190374700D01*
X229512957Y-190374700D02*
X229322481Y-190565176D01*
X229322481Y-190565176D02*
X229227243Y-190755652D01*
X229227243Y-190755652D02*
X229132005Y-191136604D01*
X229132005Y-191136604D02*
X229132005Y-191422319D01*
X229132005Y-191422319D02*
X229227243Y-191803271D01*
X229227243Y-191803271D02*
X229322481Y-191993747D01*
X229322481Y-191993747D02*
X229512957Y-192184224D01*
X229512957Y-192184224D02*
X229798672Y-192279462D01*
X229798672Y-192279462D02*
X230274862Y-192279462D01*
X227512957Y-192184224D02*
X227703433Y-192279462D01*
X227703433Y-192279462D02*
X228084386Y-192279462D01*
X228084386Y-192279462D02*
X228274862Y-192184224D01*
X228274862Y-192184224D02*
X228370100Y-191993747D01*
X228370100Y-191993747D02*
X228370100Y-191231843D01*
X228370100Y-191231843D02*
X228274862Y-191041366D01*
X228274862Y-191041366D02*
X228084386Y-190946128D01*
X228084386Y-190946128D02*
X227703433Y-190946128D01*
X227703433Y-190946128D02*
X227512957Y-191041366D01*
X227512957Y-191041366D02*
X227417719Y-191231843D01*
X227417719Y-191231843D02*
X227417719Y-191422319D01*
X227417719Y-191422319D02*
X228370100Y-191612795D01*
X226655814Y-192184224D02*
X226465338Y-192279462D01*
X226465338Y-192279462D02*
X226084386Y-192279462D01*
X226084386Y-192279462D02*
X225893909Y-192184224D01*
X225893909Y-192184224D02*
X225798671Y-191993747D01*
X225798671Y-191993747D02*
X225798671Y-191898509D01*
X225798671Y-191898509D02*
X225893909Y-191708033D01*
X225893909Y-191708033D02*
X226084386Y-191612795D01*
X226084386Y-191612795D02*
X226370100Y-191612795D01*
X226370100Y-191612795D02*
X226560576Y-191517557D01*
X226560576Y-191517557D02*
X226655814Y-191327081D01*
X226655814Y-191327081D02*
X226655814Y-191231843D01*
X226655814Y-191231843D02*
X226560576Y-191041366D01*
X226560576Y-191041366D02*
X226370100Y-190946128D01*
X226370100Y-190946128D02*
X226084386Y-190946128D01*
X226084386Y-190946128D02*
X225893909Y-191041366D01*
X224941528Y-192279462D02*
X224941528Y-190946128D01*
X224941528Y-190279462D02*
X225036766Y-190374700D01*
X225036766Y-190374700D02*
X224941528Y-190469938D01*
X224941528Y-190469938D02*
X224846290Y-190374700D01*
X224846290Y-190374700D02*
X224941528Y-190279462D01*
X224941528Y-190279462D02*
X224941528Y-190469938D01*
X223132004Y-190946128D02*
X223132004Y-192565176D01*
X223132004Y-192565176D02*
X223227242Y-192755652D01*
X223227242Y-192755652D02*
X223322480Y-192850890D01*
X223322480Y-192850890D02*
X223512957Y-192946128D01*
X223512957Y-192946128D02*
X223798671Y-192946128D01*
X223798671Y-192946128D02*
X223989147Y-192850890D01*
X223132004Y-192184224D02*
X223322480Y-192279462D01*
X223322480Y-192279462D02*
X223703433Y-192279462D01*
X223703433Y-192279462D02*
X223893909Y-192184224D01*
X223893909Y-192184224D02*
X223989147Y-192088985D01*
X223989147Y-192088985D02*
X224084385Y-191898509D01*
X224084385Y-191898509D02*
X224084385Y-191327081D01*
X224084385Y-191327081D02*
X223989147Y-191136604D01*
X223989147Y-191136604D02*
X223893909Y-191041366D01*
X223893909Y-191041366D02*
X223703433Y-190946128D01*
X223703433Y-190946128D02*
X223322480Y-190946128D01*
X223322480Y-190946128D02*
X223132004Y-191041366D01*
X222179623Y-190946128D02*
X222179623Y-192279462D01*
X222179623Y-191136604D02*
X222084385Y-191041366D01*
X222084385Y-191041366D02*
X221893909Y-190946128D01*
X221893909Y-190946128D02*
X221608194Y-190946128D01*
X221608194Y-190946128D02*
X221417718Y-191041366D01*
X221417718Y-191041366D02*
X221322480Y-191231843D01*
X221322480Y-191231843D02*
X221322480Y-192279462D01*
X218846289Y-192279462D02*
X218846289Y-190279462D01*
X218846289Y-191041366D02*
X218655813Y-190946128D01*
X218655813Y-190946128D02*
X218274860Y-190946128D01*
X218274860Y-190946128D02*
X218084384Y-191041366D01*
X218084384Y-191041366D02*
X217989146Y-191136604D01*
X217989146Y-191136604D02*
X217893908Y-191327081D01*
X217893908Y-191327081D02*
X217893908Y-191898509D01*
X217893908Y-191898509D02*
X217989146Y-192088985D01*
X217989146Y-192088985D02*
X218084384Y-192184224D01*
X218084384Y-192184224D02*
X218274860Y-192279462D01*
X218274860Y-192279462D02*
X218655813Y-192279462D01*
X218655813Y-192279462D02*
X218846289Y-192184224D01*
X217227241Y-190946128D02*
X216751051Y-192279462D01*
X216274860Y-190946128D02*
X216751051Y-192279462D01*
X216751051Y-192279462D02*
X216941527Y-192755652D01*
X216941527Y-192755652D02*
X217036765Y-192850890D01*
X217036765Y-192850890D02*
X217227241Y-192946128D01*
X215512955Y-192088985D02*
X215417717Y-192184224D01*
X215417717Y-192184224D02*
X215512955Y-192279462D01*
X215512955Y-192279462D02*
X215608193Y-192184224D01*
X215608193Y-192184224D02*
X215512955Y-192088985D01*
X215512955Y-192088985D02*
X215512955Y-192279462D01*
X215512955Y-191041366D02*
X215417717Y-191136604D01*
X215417717Y-191136604D02*
X215512955Y-191231843D01*
X215512955Y-191231843D02*
X215608193Y-191136604D01*
X215608193Y-191136604D02*
X215512955Y-191041366D01*
X215512955Y-191041366D02*
X215512955Y-191231843D01*
X230274862Y-195499350D02*
X230274862Y-193499350D01*
X230274862Y-193499350D02*
X229132005Y-195499350D01*
X229132005Y-195499350D02*
X229132005Y-193499350D01*
X227322481Y-194166016D02*
X227322481Y-195785064D01*
X227322481Y-195785064D02*
X227417719Y-195975540D01*
X227417719Y-195975540D02*
X227512957Y-196070778D01*
X227512957Y-196070778D02*
X227703434Y-196166016D01*
X227703434Y-196166016D02*
X227989148Y-196166016D01*
X227989148Y-196166016D02*
X228179624Y-196070778D01*
X227322481Y-195404112D02*
X227512957Y-195499350D01*
X227512957Y-195499350D02*
X227893910Y-195499350D01*
X227893910Y-195499350D02*
X228084386Y-195404112D01*
X228084386Y-195404112D02*
X228179624Y-195308873D01*
X228179624Y-195308873D02*
X228274862Y-195118397D01*
X228274862Y-195118397D02*
X228274862Y-194546969D01*
X228274862Y-194546969D02*
X228179624Y-194356492D01*
X228179624Y-194356492D02*
X228084386Y-194261254D01*
X228084386Y-194261254D02*
X227893910Y-194166016D01*
X227893910Y-194166016D02*
X227512957Y-194166016D01*
X227512957Y-194166016D02*
X227322481Y-194261254D01*
X225512957Y-194166016D02*
X225512957Y-195499350D01*
X226370100Y-194166016D02*
X226370100Y-195213635D01*
X226370100Y-195213635D02*
X226274862Y-195404112D01*
X226274862Y-195404112D02*
X226084386Y-195499350D01*
X226084386Y-195499350D02*
X225798671Y-195499350D01*
X225798671Y-195499350D02*
X225608195Y-195404112D01*
X225608195Y-195404112D02*
X225512957Y-195308873D01*
X224751052Y-194166016D02*
X224274862Y-195499350D01*
X223798671Y-194166016D02*
X224274862Y-195499350D01*
X224274862Y-195499350D02*
X224465338Y-195975540D01*
X224465338Y-195975540D02*
X224560576Y-196070778D01*
X224560576Y-196070778D02*
X224751052Y-196166016D01*
X222274861Y-195404112D02*
X222465337Y-195499350D01*
X222465337Y-195499350D02*
X222846290Y-195499350D01*
X222846290Y-195499350D02*
X223036766Y-195404112D01*
X223036766Y-195404112D02*
X223132004Y-195213635D01*
X223132004Y-195213635D02*
X223132004Y-194451731D01*
X223132004Y-194451731D02*
X223036766Y-194261254D01*
X223036766Y-194261254D02*
X222846290Y-194166016D01*
X222846290Y-194166016D02*
X222465337Y-194166016D01*
X222465337Y-194166016D02*
X222274861Y-194261254D01*
X222274861Y-194261254D02*
X222179623Y-194451731D01*
X222179623Y-194451731D02*
X222179623Y-194642207D01*
X222179623Y-194642207D02*
X223132004Y-194832683D01*
X221322480Y-194166016D02*
X221322480Y-195499350D01*
X221322480Y-194356492D02*
X221227242Y-194261254D01*
X221227242Y-194261254D02*
X221036766Y-194166016D01*
X221036766Y-194166016D02*
X220751051Y-194166016D01*
X220751051Y-194166016D02*
X220560575Y-194261254D01*
X220560575Y-194261254D02*
X220465337Y-194451731D01*
X220465337Y-194451731D02*
X220465337Y-195499350D01*
X216655813Y-195689826D02*
X216846289Y-195594588D01*
X216846289Y-195594588D02*
X217036765Y-195404112D01*
X217036765Y-195404112D02*
X217322479Y-195118397D01*
X217322479Y-195118397D02*
X217512956Y-195023159D01*
X217512956Y-195023159D02*
X217703432Y-195023159D01*
X217608194Y-195499350D02*
X217798670Y-195404112D01*
X217798670Y-195404112D02*
X217989146Y-195213635D01*
X217989146Y-195213635D02*
X218084384Y-194832683D01*
X218084384Y-194832683D02*
X218084384Y-194166016D01*
X218084384Y-194166016D02*
X217989146Y-193785064D01*
X217989146Y-193785064D02*
X217798670Y-193594588D01*
X217798670Y-193594588D02*
X217608194Y-193499350D01*
X217608194Y-193499350D02*
X217227241Y-193499350D01*
X217227241Y-193499350D02*
X217036765Y-193594588D01*
X217036765Y-193594588D02*
X216846289Y-193785064D01*
X216846289Y-193785064D02*
X216751051Y-194166016D01*
X216751051Y-194166016D02*
X216751051Y-194832683D01*
X216751051Y-194832683D02*
X216846289Y-195213635D01*
X216846289Y-195213635D02*
X217036765Y-195404112D01*
X217036765Y-195404112D02*
X217227241Y-195499350D01*
X217227241Y-195499350D02*
X217608194Y-195499350D01*
X215036765Y-194166016D02*
X215036765Y-195499350D01*
X215893908Y-194166016D02*
X215893908Y-195213635D01*
X215893908Y-195213635D02*
X215798670Y-195404112D01*
X215798670Y-195404112D02*
X215608194Y-195499350D01*
X215608194Y-195499350D02*
X215322479Y-195499350D01*
X215322479Y-195499350D02*
X215132003Y-195404112D01*
X215132003Y-195404112D02*
X215036765Y-195308873D01*
X213227241Y-195499350D02*
X213227241Y-194451731D01*
X213227241Y-194451731D02*
X213322479Y-194261254D01*
X213322479Y-194261254D02*
X213512955Y-194166016D01*
X213512955Y-194166016D02*
X213893908Y-194166016D01*
X213893908Y-194166016D02*
X214084384Y-194261254D01*
X213227241Y-195404112D02*
X213417717Y-195499350D01*
X213417717Y-195499350D02*
X213893908Y-195499350D01*
X213893908Y-195499350D02*
X214084384Y-195404112D01*
X214084384Y-195404112D02*
X214179622Y-195213635D01*
X214179622Y-195213635D02*
X214179622Y-195023159D01*
X214179622Y-195023159D02*
X214084384Y-194832683D01*
X214084384Y-194832683D02*
X213893908Y-194737445D01*
X213893908Y-194737445D02*
X213417717Y-194737445D01*
X213417717Y-194737445D02*
X213227241Y-194642207D01*
X212274860Y-194166016D02*
X212274860Y-195499350D01*
X212274860Y-194356492D02*
X212179622Y-194261254D01*
X212179622Y-194261254D02*
X211989146Y-194166016D01*
X211989146Y-194166016D02*
X211703431Y-194166016D01*
X211703431Y-194166016D02*
X211512955Y-194261254D01*
X211512955Y-194261254D02*
X211417717Y-194451731D01*
X211417717Y-194451731D02*
X211417717Y-195499350D01*
X209608193Y-194166016D02*
X209608193Y-195785064D01*
X209608193Y-195785064D02*
X209703431Y-195975540D01*
X209703431Y-195975540D02*
X209798669Y-196070778D01*
X209798669Y-196070778D02*
X209989146Y-196166016D01*
X209989146Y-196166016D02*
X210274860Y-196166016D01*
X210274860Y-196166016D02*
X210465336Y-196070778D01*
X209608193Y-195404112D02*
X209798669Y-195499350D01*
X209798669Y-195499350D02*
X210179622Y-195499350D01*
X210179622Y-195499350D02*
X210370098Y-195404112D01*
X210370098Y-195404112D02*
X210465336Y-195308873D01*
X210465336Y-195308873D02*
X210560574Y-195118397D01*
X210560574Y-195118397D02*
X210560574Y-194546969D01*
X210560574Y-194546969D02*
X210465336Y-194356492D01*
X210465336Y-194356492D02*
X210370098Y-194261254D01*
X210370098Y-194261254D02*
X210179622Y-194166016D01*
X210179622Y-194166016D02*
X209798669Y-194166016D01*
X209798669Y-194166016D02*
X209608193Y-194261254D01*
X206179621Y-195499350D02*
X207132002Y-195499350D01*
X207132002Y-195499350D02*
X207132002Y-193499350D01*
X205512954Y-195499350D02*
X205512954Y-194166016D01*
X205512954Y-193499350D02*
X205608192Y-193594588D01*
X205608192Y-193594588D02*
X205512954Y-193689826D01*
X205512954Y-193689826D02*
X205417716Y-193594588D01*
X205417716Y-193594588D02*
X205512954Y-193499350D01*
X205512954Y-193499350D02*
X205512954Y-193689826D01*
X204560573Y-194166016D02*
X204560573Y-195499350D01*
X204560573Y-194356492D02*
X204465335Y-194261254D01*
X204465335Y-194261254D02*
X204274859Y-194166016D01*
X204274859Y-194166016D02*
X203989144Y-194166016D01*
X203989144Y-194166016D02*
X203798668Y-194261254D01*
X203798668Y-194261254D02*
X203703430Y-194451731D01*
X203703430Y-194451731D02*
X203703430Y-195499350D01*
X202751049Y-195499350D02*
X202751049Y-193499350D01*
X201893906Y-195499350D02*
X201893906Y-194451731D01*
X201893906Y-194451731D02*
X201989144Y-194261254D01*
X201989144Y-194261254D02*
X202179620Y-194166016D01*
X202179620Y-194166016D02*
X202465335Y-194166016D01*
X202465335Y-194166016D02*
X202655811Y-194261254D01*
X202655811Y-194261254D02*
X202751049Y-194356492D01*
X194941523Y-193689826D02*
X194846285Y-193594588D01*
X194846285Y-193594588D02*
X194655809Y-193499350D01*
X194655809Y-193499350D02*
X194179618Y-193499350D01*
X194179618Y-193499350D02*
X193989142Y-193594588D01*
X193989142Y-193594588D02*
X193893904Y-193689826D01*
X193893904Y-193689826D02*
X193798666Y-193880302D01*
X193798666Y-193880302D02*
X193798666Y-194070778D01*
X193798666Y-194070778D02*
X193893904Y-194356492D01*
X193893904Y-194356492D02*
X195036761Y-195499350D01*
X195036761Y-195499350D02*
X193798666Y-195499350D01*
X193036761Y-193689826D02*
X192941523Y-193594588D01*
X192941523Y-193594588D02*
X192751047Y-193499350D01*
X192751047Y-193499350D02*
X192274856Y-193499350D01*
X192274856Y-193499350D02*
X192084380Y-193594588D01*
X192084380Y-193594588D02*
X191989142Y-193689826D01*
X191989142Y-193689826D02*
X191893904Y-193880302D01*
X191893904Y-193880302D02*
X191893904Y-194070778D01*
X191893904Y-194070778D02*
X191989142Y-194356492D01*
X191989142Y-194356492D02*
X193131999Y-195499350D01*
X193131999Y-195499350D02*
X191893904Y-195499350D01*
X189989142Y-195499350D02*
X191131999Y-195499350D01*
X190560571Y-195499350D02*
X190560571Y-193499350D01*
X190560571Y-193499350D02*
X190751047Y-193785064D01*
X190751047Y-193785064D02*
X190941523Y-193975540D01*
X190941523Y-193975540D02*
X191131999Y-194070778D01*
X188179618Y-193499350D02*
X189131999Y-193499350D01*
X189131999Y-193499350D02*
X189227237Y-194451731D01*
X189227237Y-194451731D02*
X189131999Y-194356492D01*
X189131999Y-194356492D02*
X188941523Y-194261254D01*
X188941523Y-194261254D02*
X188465332Y-194261254D01*
X188465332Y-194261254D02*
X188274856Y-194356492D01*
X188274856Y-194356492D02*
X188179618Y-194451731D01*
X188179618Y-194451731D02*
X188084380Y-194642207D01*
X188084380Y-194642207D02*
X188084380Y-195118397D01*
X188084380Y-195118397D02*
X188179618Y-195308873D01*
X188179618Y-195308873D02*
X188274856Y-195404112D01*
X188274856Y-195404112D02*
X188465332Y-195499350D01*
X188465332Y-195499350D02*
X188941523Y-195499350D01*
X188941523Y-195499350D02*
X189131999Y-195404112D01*
X189131999Y-195404112D02*
X189227237Y-195308873D01*
X186179618Y-195499350D02*
X187322475Y-195499350D01*
X186751047Y-195499350D02*
X186751047Y-193499350D01*
X186751047Y-193499350D02*
X186941523Y-193785064D01*
X186941523Y-193785064D02*
X187131999Y-193975540D01*
X187131999Y-193975540D02*
X187322475Y-194070778D01*
X185417713Y-193689826D02*
X185322475Y-193594588D01*
X185322475Y-193594588D02*
X185131999Y-193499350D01*
X185131999Y-193499350D02*
X184655808Y-193499350D01*
X184655808Y-193499350D02*
X184465332Y-193594588D01*
X184465332Y-193594588D02*
X184370094Y-193689826D01*
X184370094Y-193689826D02*
X184274856Y-193880302D01*
X184274856Y-193880302D02*
X184274856Y-194070778D01*
X184274856Y-194070778D02*
X184370094Y-194356492D01*
X184370094Y-194356492D02*
X185512951Y-195499350D01*
X185512951Y-195499350D02*
X184274856Y-195499350D01*
X182560570Y-194166016D02*
X182560570Y-195499350D01*
X183036761Y-193404112D02*
X183512951Y-194832683D01*
X183512951Y-194832683D02*
X182274856Y-194832683D01*
X180655808Y-193499350D02*
X181036761Y-193499350D01*
X181036761Y-193499350D02*
X181227237Y-193594588D01*
X181227237Y-193594588D02*
X181322475Y-193689826D01*
X181322475Y-193689826D02*
X181512951Y-193975540D01*
X181512951Y-193975540D02*
X181608189Y-194356492D01*
X181608189Y-194356492D02*
X181608189Y-195118397D01*
X181608189Y-195118397D02*
X181512951Y-195308873D01*
X181512951Y-195308873D02*
X181417713Y-195404112D01*
X181417713Y-195404112D02*
X181227237Y-195499350D01*
X181227237Y-195499350D02*
X180846284Y-195499350D01*
X180846284Y-195499350D02*
X180655808Y-195404112D01*
X180655808Y-195404112D02*
X180560570Y-195308873D01*
X180560570Y-195308873D02*
X180465332Y-195118397D01*
X180465332Y-195118397D02*
X180465332Y-194642207D01*
X180465332Y-194642207D02*
X180560570Y-194451731D01*
X180560570Y-194451731D02*
X180655808Y-194356492D01*
X180655808Y-194356492D02*
X180846284Y-194261254D01*
X180846284Y-194261254D02*
X181227237Y-194261254D01*
X181227237Y-194261254D02*
X181417713Y-194356492D01*
X181417713Y-194356492D02*
X181512951Y-194451731D01*
X181512951Y-194451731D02*
X181608189Y-194642207D01*
X230274862Y-198719238D02*
X230274862Y-196719238D01*
X230274862Y-196719238D02*
X229132005Y-198719238D01*
X229132005Y-198719238D02*
X229132005Y-196719238D01*
X227322481Y-197385904D02*
X227322481Y-199004952D01*
X227322481Y-199004952D02*
X227417719Y-199195428D01*
X227417719Y-199195428D02*
X227512957Y-199290666D01*
X227512957Y-199290666D02*
X227703434Y-199385904D01*
X227703434Y-199385904D02*
X227989148Y-199385904D01*
X227989148Y-199385904D02*
X228179624Y-199290666D01*
X227322481Y-198624000D02*
X227512957Y-198719238D01*
X227512957Y-198719238D02*
X227893910Y-198719238D01*
X227893910Y-198719238D02*
X228084386Y-198624000D01*
X228084386Y-198624000D02*
X228179624Y-198528761D01*
X228179624Y-198528761D02*
X228274862Y-198338285D01*
X228274862Y-198338285D02*
X228274862Y-197766857D01*
X228274862Y-197766857D02*
X228179624Y-197576380D01*
X228179624Y-197576380D02*
X228084386Y-197481142D01*
X228084386Y-197481142D02*
X227893910Y-197385904D01*
X227893910Y-197385904D02*
X227512957Y-197385904D01*
X227512957Y-197385904D02*
X227322481Y-197481142D01*
X225512957Y-197385904D02*
X225512957Y-198719238D01*
X226370100Y-197385904D02*
X226370100Y-198433523D01*
X226370100Y-198433523D02*
X226274862Y-198624000D01*
X226274862Y-198624000D02*
X226084386Y-198719238D01*
X226084386Y-198719238D02*
X225798671Y-198719238D01*
X225798671Y-198719238D02*
X225608195Y-198624000D01*
X225608195Y-198624000D02*
X225512957Y-198528761D01*
X224751052Y-197385904D02*
X224274862Y-198719238D01*
X223798671Y-197385904D02*
X224274862Y-198719238D01*
X224274862Y-198719238D02*
X224465338Y-199195428D01*
X224465338Y-199195428D02*
X224560576Y-199290666D01*
X224560576Y-199290666D02*
X224751052Y-199385904D01*
X222274861Y-198624000D02*
X222465337Y-198719238D01*
X222465337Y-198719238D02*
X222846290Y-198719238D01*
X222846290Y-198719238D02*
X223036766Y-198624000D01*
X223036766Y-198624000D02*
X223132004Y-198433523D01*
X223132004Y-198433523D02*
X223132004Y-197671619D01*
X223132004Y-197671619D02*
X223036766Y-197481142D01*
X223036766Y-197481142D02*
X222846290Y-197385904D01*
X222846290Y-197385904D02*
X222465337Y-197385904D01*
X222465337Y-197385904D02*
X222274861Y-197481142D01*
X222274861Y-197481142D02*
X222179623Y-197671619D01*
X222179623Y-197671619D02*
X222179623Y-197862095D01*
X222179623Y-197862095D02*
X223132004Y-198052571D01*
X221322480Y-197385904D02*
X221322480Y-198719238D01*
X221322480Y-197576380D02*
X221227242Y-197481142D01*
X221227242Y-197481142D02*
X221036766Y-197385904D01*
X221036766Y-197385904D02*
X220751051Y-197385904D01*
X220751051Y-197385904D02*
X220560575Y-197481142D01*
X220560575Y-197481142D02*
X220465337Y-197671619D01*
X220465337Y-197671619D02*
X220465337Y-198719238D01*
X217989146Y-198719238D02*
X217989146Y-196719238D01*
X217989146Y-196719238D02*
X216846289Y-198719238D01*
X216846289Y-198719238D02*
X216846289Y-196719238D01*
X215036765Y-197385904D02*
X215036765Y-199004952D01*
X215036765Y-199004952D02*
X215132003Y-199195428D01*
X215132003Y-199195428D02*
X215227241Y-199290666D01*
X215227241Y-199290666D02*
X215417718Y-199385904D01*
X215417718Y-199385904D02*
X215703432Y-199385904D01*
X215703432Y-199385904D02*
X215893908Y-199290666D01*
X215036765Y-198624000D02*
X215227241Y-198719238D01*
X215227241Y-198719238D02*
X215608194Y-198719238D01*
X215608194Y-198719238D02*
X215798670Y-198624000D01*
X215798670Y-198624000D02*
X215893908Y-198528761D01*
X215893908Y-198528761D02*
X215989146Y-198338285D01*
X215989146Y-198338285D02*
X215989146Y-197766857D01*
X215989146Y-197766857D02*
X215893908Y-197576380D01*
X215893908Y-197576380D02*
X215798670Y-197481142D01*
X215798670Y-197481142D02*
X215608194Y-197385904D01*
X215608194Y-197385904D02*
X215227241Y-197385904D01*
X215227241Y-197385904D02*
X215036765Y-197481142D01*
X213798670Y-198719238D02*
X213989146Y-198624000D01*
X213989146Y-198624000D02*
X214084384Y-198528761D01*
X214084384Y-198528761D02*
X214179622Y-198338285D01*
X214179622Y-198338285D02*
X214179622Y-197766857D01*
X214179622Y-197766857D02*
X214084384Y-197576380D01*
X214084384Y-197576380D02*
X213989146Y-197481142D01*
X213989146Y-197481142D02*
X213798670Y-197385904D01*
X213798670Y-197385904D02*
X213512955Y-197385904D01*
X213512955Y-197385904D02*
X213322479Y-197481142D01*
X213322479Y-197481142D02*
X213227241Y-197576380D01*
X213227241Y-197576380D02*
X213132003Y-197766857D01*
X213132003Y-197766857D02*
X213132003Y-198338285D01*
X213132003Y-198338285D02*
X213227241Y-198528761D01*
X213227241Y-198528761D02*
X213322479Y-198624000D01*
X213322479Y-198624000D02*
X213512955Y-198719238D01*
X213512955Y-198719238D02*
X213798670Y-198719238D01*
X211417717Y-198624000D02*
X211608193Y-198719238D01*
X211608193Y-198719238D02*
X211989146Y-198719238D01*
X211989146Y-198719238D02*
X212179622Y-198624000D01*
X212179622Y-198624000D02*
X212274860Y-198528761D01*
X212274860Y-198528761D02*
X212370098Y-198338285D01*
X212370098Y-198338285D02*
X212370098Y-197766857D01*
X212370098Y-197766857D02*
X212274860Y-197576380D01*
X212274860Y-197576380D02*
X212179622Y-197481142D01*
X212179622Y-197481142D02*
X211989146Y-197385904D01*
X211989146Y-197385904D02*
X211608193Y-197385904D01*
X211608193Y-197385904D02*
X211417717Y-197481142D01*
X209036764Y-198719238D02*
X209036764Y-196719238D01*
X207893907Y-198719238D02*
X208751050Y-197576380D01*
X207893907Y-196719238D02*
X209036764Y-197862095D01*
X207227240Y-197385904D02*
X206751050Y-198719238D01*
X206274859Y-197385904D02*
X206751050Y-198719238D01*
X206751050Y-198719238D02*
X206941526Y-199195428D01*
X206941526Y-199195428D02*
X207036764Y-199290666D01*
X207036764Y-199290666D02*
X207227240Y-199385904D01*
X203036763Y-198719238D02*
X203989144Y-198719238D01*
X203989144Y-198719238D02*
X203989144Y-196719238D01*
X202084382Y-198719238D02*
X202274858Y-198624000D01*
X202274858Y-198624000D02*
X202370096Y-198528761D01*
X202370096Y-198528761D02*
X202465334Y-198338285D01*
X202465334Y-198338285D02*
X202465334Y-197766857D01*
X202465334Y-197766857D02*
X202370096Y-197576380D01*
X202370096Y-197576380D02*
X202274858Y-197481142D01*
X202274858Y-197481142D02*
X202084382Y-197385904D01*
X202084382Y-197385904D02*
X201798667Y-197385904D01*
X201798667Y-197385904D02*
X201608191Y-197481142D01*
X201608191Y-197481142D02*
X201512953Y-197576380D01*
X201512953Y-197576380D02*
X201417715Y-197766857D01*
X201417715Y-197766857D02*
X201417715Y-198338285D01*
X201417715Y-198338285D02*
X201512953Y-198528761D01*
X201512953Y-198528761D02*
X201608191Y-198624000D01*
X201608191Y-198624000D02*
X201798667Y-198719238D01*
X201798667Y-198719238D02*
X202084382Y-198719238D01*
X200560572Y-197385904D02*
X200560572Y-198719238D01*
X200560572Y-197576380D02*
X200465334Y-197481142D01*
X200465334Y-197481142D02*
X200274858Y-197385904D01*
X200274858Y-197385904D02*
X199989143Y-197385904D01*
X199989143Y-197385904D02*
X199798667Y-197481142D01*
X199798667Y-197481142D02*
X199703429Y-197671619D01*
X199703429Y-197671619D02*
X199703429Y-198719238D01*
X197893905Y-197385904D02*
X197893905Y-199004952D01*
X197893905Y-199004952D02*
X197989143Y-199195428D01*
X197989143Y-199195428D02*
X198084381Y-199290666D01*
X198084381Y-199290666D02*
X198274858Y-199385904D01*
X198274858Y-199385904D02*
X198560572Y-199385904D01*
X198560572Y-199385904D02*
X198751048Y-199290666D01*
X197893905Y-198624000D02*
X198084381Y-198719238D01*
X198084381Y-198719238D02*
X198465334Y-198719238D01*
X198465334Y-198719238D02*
X198655810Y-198624000D01*
X198655810Y-198624000D02*
X198751048Y-198528761D01*
X198751048Y-198528761D02*
X198846286Y-198338285D01*
X198846286Y-198338285D02*
X198846286Y-197766857D01*
X198846286Y-197766857D02*
X198751048Y-197576380D01*
X198751048Y-197576380D02*
X198655810Y-197481142D01*
X198655810Y-197481142D02*
X198465334Y-197385904D01*
X198465334Y-197385904D02*
X198084381Y-197385904D01*
X198084381Y-197385904D02*
X197893905Y-197481142D01*
X193989142Y-196909714D02*
X193893904Y-196814476D01*
X193893904Y-196814476D02*
X193703428Y-196719238D01*
X193703428Y-196719238D02*
X193227237Y-196719238D01*
X193227237Y-196719238D02*
X193036761Y-196814476D01*
X193036761Y-196814476D02*
X192941523Y-196909714D01*
X192941523Y-196909714D02*
X192846285Y-197100190D01*
X192846285Y-197100190D02*
X192846285Y-197290666D01*
X192846285Y-197290666D02*
X192941523Y-197576380D01*
X192941523Y-197576380D02*
X194084380Y-198719238D01*
X194084380Y-198719238D02*
X192846285Y-198719238D01*
X192084380Y-196909714D02*
X191989142Y-196814476D01*
X191989142Y-196814476D02*
X191798666Y-196719238D01*
X191798666Y-196719238D02*
X191322475Y-196719238D01*
X191322475Y-196719238D02*
X191131999Y-196814476D01*
X191131999Y-196814476D02*
X191036761Y-196909714D01*
X191036761Y-196909714D02*
X190941523Y-197100190D01*
X190941523Y-197100190D02*
X190941523Y-197290666D01*
X190941523Y-197290666D02*
X191036761Y-197576380D01*
X191036761Y-197576380D02*
X192179618Y-198719238D01*
X192179618Y-198719238D02*
X190941523Y-198719238D01*
X189036761Y-198719238D02*
X190179618Y-198719238D01*
X189608190Y-198719238D02*
X189608190Y-196719238D01*
X189608190Y-196719238D02*
X189798666Y-197004952D01*
X189798666Y-197004952D02*
X189989142Y-197195428D01*
X189989142Y-197195428D02*
X190179618Y-197290666D01*
X187227237Y-196719238D02*
X188179618Y-196719238D01*
X188179618Y-196719238D02*
X188274856Y-197671619D01*
X188274856Y-197671619D02*
X188179618Y-197576380D01*
X188179618Y-197576380D02*
X187989142Y-197481142D01*
X187989142Y-197481142D02*
X187512951Y-197481142D01*
X187512951Y-197481142D02*
X187322475Y-197576380D01*
X187322475Y-197576380D02*
X187227237Y-197671619D01*
X187227237Y-197671619D02*
X187131999Y-197862095D01*
X187131999Y-197862095D02*
X187131999Y-198338285D01*
X187131999Y-198338285D02*
X187227237Y-198528761D01*
X187227237Y-198528761D02*
X187322475Y-198624000D01*
X187322475Y-198624000D02*
X187512951Y-198719238D01*
X187512951Y-198719238D02*
X187989142Y-198719238D01*
X187989142Y-198719238D02*
X188179618Y-198624000D01*
X188179618Y-198624000D02*
X188274856Y-198528761D01*
X185227237Y-198719238D02*
X186370094Y-198719238D01*
X185798666Y-198719238D02*
X185798666Y-196719238D01*
X185798666Y-196719238D02*
X185989142Y-197004952D01*
X185989142Y-197004952D02*
X186179618Y-197195428D01*
X186179618Y-197195428D02*
X186370094Y-197290666D01*
X184465332Y-196909714D02*
X184370094Y-196814476D01*
X184370094Y-196814476D02*
X184179618Y-196719238D01*
X184179618Y-196719238D02*
X183703427Y-196719238D01*
X183703427Y-196719238D02*
X183512951Y-196814476D01*
X183512951Y-196814476D02*
X183417713Y-196909714D01*
X183417713Y-196909714D02*
X183322475Y-197100190D01*
X183322475Y-197100190D02*
X183322475Y-197290666D01*
X183322475Y-197290666D02*
X183417713Y-197576380D01*
X183417713Y-197576380D02*
X184560570Y-198719238D01*
X184560570Y-198719238D02*
X183322475Y-198719238D01*
X181512951Y-196719238D02*
X182465332Y-196719238D01*
X182465332Y-196719238D02*
X182560570Y-197671619D01*
X182560570Y-197671619D02*
X182465332Y-197576380D01*
X182465332Y-197576380D02*
X182274856Y-197481142D01*
X182274856Y-197481142D02*
X181798665Y-197481142D01*
X181798665Y-197481142D02*
X181608189Y-197576380D01*
X181608189Y-197576380D02*
X181512951Y-197671619D01*
X181512951Y-197671619D02*
X181417713Y-197862095D01*
X181417713Y-197862095D02*
X181417713Y-198338285D01*
X181417713Y-198338285D02*
X181512951Y-198528761D01*
X181512951Y-198528761D02*
X181608189Y-198624000D01*
X181608189Y-198624000D02*
X181798665Y-198719238D01*
X181798665Y-198719238D02*
X182274856Y-198719238D01*
X182274856Y-198719238D02*
X182465332Y-198624000D01*
X182465332Y-198624000D02*
X182560570Y-198528761D01*
X180179618Y-196719238D02*
X179989141Y-196719238D01*
X179989141Y-196719238D02*
X179798665Y-196814476D01*
X179798665Y-196814476D02*
X179703427Y-196909714D01*
X179703427Y-196909714D02*
X179608189Y-197100190D01*
X179608189Y-197100190D02*
X179512951Y-197481142D01*
X179512951Y-197481142D02*
X179512951Y-197957333D01*
X179512951Y-197957333D02*
X179608189Y-198338285D01*
X179608189Y-198338285D02*
X179703427Y-198528761D01*
X179703427Y-198528761D02*
X179798665Y-198624000D01*
X179798665Y-198624000D02*
X179989141Y-198719238D01*
X179989141Y-198719238D02*
X180179618Y-198719238D01*
X180179618Y-198719238D02*
X180370094Y-198624000D01*
X180370094Y-198624000D02*
X180465332Y-198528761D01*
X180465332Y-198528761D02*
X180560570Y-198338285D01*
X180560570Y-198338285D02*
X180655808Y-197957333D01*
X180655808Y-197957333D02*
X180655808Y-197481142D01*
X180655808Y-197481142D02*
X180560570Y-197100190D01*
X180560570Y-197100190D02*
X180465332Y-196909714D01*
X180465332Y-196909714D02*
X180370094Y-196814476D01*
X180370094Y-196814476D02*
X180179618Y-196719238D01*
D11*
X240766666Y-236979695D02*
X240766666Y-237551123D01*
X240766666Y-237551123D02*
X240804761Y-237665409D01*
X240804761Y-237665409D02*
X240880952Y-237741600D01*
X240880952Y-237741600D02*
X240995237Y-237779695D01*
X240995237Y-237779695D02*
X241071428Y-237779695D01*
X240004761Y-236979695D02*
X240385713Y-236979695D01*
X240385713Y-236979695D02*
X240423809Y-237360647D01*
X240423809Y-237360647D02*
X240385713Y-237322552D01*
X240385713Y-237322552D02*
X240309523Y-237284457D01*
X240309523Y-237284457D02*
X240119047Y-237284457D01*
X240119047Y-237284457D02*
X240042856Y-237322552D01*
X240042856Y-237322552D02*
X240004761Y-237360647D01*
X240004761Y-237360647D02*
X239966666Y-237436838D01*
X239966666Y-237436838D02*
X239966666Y-237627314D01*
X239966666Y-237627314D02*
X240004761Y-237703504D01*
X240004761Y-237703504D02*
X240042856Y-237741600D01*
X240042856Y-237741600D02*
X240119047Y-237779695D01*
X240119047Y-237779695D02*
X240309523Y-237779695D01*
X240309523Y-237779695D02*
X240385713Y-237741600D01*
X240385713Y-237741600D02*
X240423809Y-237703504D01*
D12*
X263840219Y-229512319D02*
X263840219Y-230226604D01*
X263840219Y-230226604D02*
X263887838Y-230369461D01*
X263887838Y-230369461D02*
X263983076Y-230464700D01*
X263983076Y-230464700D02*
X264125933Y-230512319D01*
X264125933Y-230512319D02*
X264221171Y-230512319D01*
X262840219Y-230512319D02*
X263411647Y-230512319D01*
X263125933Y-230512319D02*
X263125933Y-229512319D01*
X263125933Y-229512319D02*
X263221171Y-229655176D01*
X263221171Y-229655176D02*
X263316409Y-229750414D01*
X263316409Y-229750414D02*
X263411647Y-229798033D01*
X261983076Y-229845652D02*
X261983076Y-230512319D01*
X262221171Y-229464700D02*
X262459266Y-230178985D01*
X262459266Y-230178985D02*
X261840219Y-230178985D01*
D13*
%TO.C,J5*%
X231600000Y-243000000D02*
X231600000Y-236850000D01*
X231600000Y-248980000D02*
X231600000Y-246200000D01*
X232200000Y-248980000D02*
X231600000Y-248980000D01*
X232200000Y-249230000D02*
X232200000Y-248980000D01*
X233300000Y-248980000D02*
X233300000Y-249230000D01*
X233300000Y-249230000D02*
X232200000Y-249230000D01*
X236300000Y-234230000D02*
X232825000Y-234230000D01*
X246650000Y-243025000D02*
X246650000Y-236900000D01*
X246650000Y-248980000D02*
X233300000Y-248980000D01*
X246650000Y-248980000D02*
X246650000Y-246200000D01*
D14*
%TO.C,J14*%
X252960696Y-236632500D02*
X252960696Y-245892500D01*
X264705696Y-248012500D02*
X253505696Y-248012500D01*
X265250696Y-236632500D02*
X265250696Y-245892500D01*
D11*
X259005696Y-232612500D02*
G75*
G02*
X258805696Y-232612500I-100000J0D01*
G01*
X258805696Y-232612500D02*
G75*
G02*
X259005696Y-232612500I100000J0D01*
G01*
%TD*%
M02*
