M48
; DRILL file {KiCad 9.0.0} date 2026-03-27T21:53:33+0700
; FORMAT={-:-/ absolute / metric / decimal}
; #@! TF.CreationDate,2026-03-27T21:53:33+07:00
; #@! TF.GenerationSoftware,Kicad,Pcbnew,9.0.0
; #@! TF.FileFunction,Plated,1,2,PTH
FMAT,2
METRIC
; #@! TA.AperFunction,Plated,PTH,ComponentDrill
T1C0.200
; #@! TA.AperFunction,Plated,PTH,ViaDrill
T2C0.300
; #@! TA.AperFunction,Plated,PTH,ComponentDrill
T3C0.300
; #@! TA.AperFunction,Plated,PTH,ViaDrill
T4C0.500
; #@! TA.AperFunction,Plated,PTH,ComponentDrill
T5C0.500
; #@! TA.AperFunction,Plated,PTH,ComponentDrill
T6C0.600
; #@! TA.AperFunction,Plated,PTH,ComponentDrill
T7C0.762
; #@! TA.AperFunction,Plated,PTH,ViaDrill
T8C0.800
; #@! TA.AperFunction,Plated,PTH,ComponentDrill
T9C0.800
; #@! TA.AperFunction,Plated,PTH,ComponentDrill
T10C0.850
; #@! TA.AperFunction,Plated,PTH,ComponentDrill
T11C0.890
; #@! TA.AperFunction,Plated,PTH,ComponentDrill
T12C0.900
; #@! TA.AperFunction,Plated,PTH,ComponentDrill
T13C1.000
; #@! TA.AperFunction,Plated,PTH,ComponentDrill
T14C1.020
; #@! TA.AperFunction,Plated,PTH,ComponentDrill
T15C1.100
; #@! TA.AperFunction,Plated,PTH,ComponentDrill
T16C1.200
; #@! TA.AperFunction,Plated,PTH,ComponentDrill
T17C3.200
%
G90
G05
T1
X286.85Y-156.26
X286.85Y-157.66
X287.55Y-155.56
X287.55Y-156.96
X287.55Y-158.36
X288.25Y-156.26
X288.25Y-157.66
X288.95Y-155.56
X288.95Y-156.96
X288.95Y-158.36
X289.65Y-156.26
X289.65Y-157.66
T2
X178.88Y-243.27
X178.96Y-244.94
X178.99Y-241.66
X179.02Y-247.05
X179.195Y-213.05
X179.195Y-233.05
X179.92Y-203.96
X180.04Y-197.96
X180.1Y-195.4
X180.22Y-190.89
X180.46Y-163.76
X180.49Y-243.4
X180.52Y-246.49
X180.6Y-221.63
X180.63Y-200.69
X180.69Y-208.71
X180.73Y-218.91
X180.81Y-224.75
X180.84Y-227.97
X180.87Y-181.02
X181.0Y-175.17
X181.0Y-215.47
X181.025Y-152.125
X181.025Y-177.525
X181.28Y-211.75
X181.37Y-244.3
X181.41Y-155.15
X181.7Y-184.53
X181.79Y-242.08
X181.97Y-228.32
X182.06Y-217.69
X182.27Y-240.63
X182.4Y-246.34
X182.42Y-170.83
X182.61Y-208.97
X182.77Y-206.87
X182.78Y-148.73
X182.98Y-228.34
X183.01Y-188.69
X183.01Y-196.0
X183.93Y-243.69
X184.14Y-241.9
X184.27Y-158.95
X184.62Y-180.13
X184.91Y-192.91
X184.96Y-247.36
X185.04Y-164.65
X185.09Y-185.0
X185.35Y-245.75
X185.39Y-197.12
X185.41Y-209.4
X185.62Y-242.14
X185.92Y-240.49
X186.04Y-244.04
X186.58Y-189.37
X186.69Y-207.7
X187.59Y-153.43
X187.71Y-170.6
X187.76Y-195.46
X187.94Y-186.19
X187.96Y-218.66
X188.19Y-176.0
X188.42Y-180.43
X188.42Y-191.96
X188.54Y-149.09
X189.08Y-228.6
X189.25Y-218.8
X189.43Y-200.99
X189.55Y-208.06
X189.97Y-165.55
X190.03Y-159.9
X190.2Y-207.34
X191.16Y-231.13
X191.53Y-172.96
X191.63Y-193.44
X192.4Y-190.17
X192.41Y-167.75
X192.51Y-228.57
X192.635Y-211.61
X192.7Y-155.21
X193.7Y-230.39
X194.22Y-241.41
X194.37Y-161.03
X194.63Y-247.59
X195.02Y-151.52
X195.93Y-229.56
X196.07Y-178.99
X196.32Y-216.21
X196.45Y-156.16
X196.83Y-195.49
X197.09Y-217.67
X197.12Y-210.17
X197.22Y-204.81
X197.33Y-207.87
X197.52Y-165.6
X198.61Y-194.02
X200.01Y-238.77
X200.28Y-192.83
X200.52Y-203.91
X200.695Y-199.65
X200.695Y-224.4
X200.73Y-220.23
X200.78Y-217.16
X200.79Y-202.03
X200.83Y-195.48
X200.9Y-162.56
X200.91Y-233.16
X200.94Y-214.76
X200.99Y-166.13
X201.08Y-168.8
X201.17Y-158.11
X201.43Y-145.45
X201.43Y-151.24
X201.43Y-154.45
X201.52Y-148.66
X201.78Y-194.93
X201.79Y-198.1
X201.98Y-245.36
X202.3Y-191.17
X202.33Y-242.28
X202.61Y-203.75
X202.73Y-233.16
X202.77Y-202.4
X202.96Y-240.33
X203.28Y-238.19
X203.52Y-192.95
X204.55Y-233.16
X204.64Y-168.62
X205.0Y-144.11
X205.15Y-187.49
X205.48Y-241.98
X205.66Y-244.72
X206.17Y-238.82
X206.22Y-173.51
X206.33Y-233.24
X206.425Y-177.525
X207.01Y-171.72
X207.4Y-163.72
X207.4Y-180.0
X207.4Y-214.9
X207.58Y-151.87
X207.61Y-222.41
X207.94Y-154.9
X207.94Y-158.2
X208.03Y-161.4
X208.19Y-233.2
X208.21Y-147.59
X208.45Y-205.06
X208.83Y-176.83
X208.91Y-239.14
X209.01Y-143.94
X209.23Y-171.61
X209.28Y-153.92
X209.69Y-219.85
X209.73Y-205.115
X209.98Y-233.44
X209.99Y-240.67
X210.5Y-187.01
X210.57Y-244.49
X210.65Y-175.13
X211.47Y-193.28
X211.6Y-172.44
X211.86Y-153.65
X211.91Y-214.36
X212.12Y-157.58
X212.16Y-180.2
X212.2Y-160.87
X212.25Y-245.13
X212.31Y-149.19
X212.31Y-233.95
X212.59Y-177.31
X212.83Y-170.34
X213.02Y-155.52
X213.04Y-217.69
X213.19Y-166.93
X213.29Y-164.08
X213.445Y-196.9
X213.66Y-238.39
X213.73Y-146.61
X214.18Y-145.01
X214.34Y-165.55
X214.65Y-233.59
X214.69Y-169.35
X214.81Y-173.74
X215.16Y-155.43
X215.16Y-242.62
X215.17Y-159.88
X215.18Y-216.36
X215.52Y-178.66
X215.72Y-175.88
X215.88Y-171.69
X215.95Y-201.72
X216.04Y-181.47
X216.06Y-218.52
X216.43Y-239.02
X216.61Y-220.54
X217.03Y-233.16
X217.37Y-216.34
X217.5Y-223.75
X217.84Y-245.01
X217.94Y-238.7
X218.22Y-185.38
X218.45Y-180.2
X218.49Y-176.91
X218.53Y-174.22
X218.53Y-182.97
X218.63Y-221.2
X218.79Y-243.41
X219.05Y-154.72
X219.1Y-150.99
X219.22Y-219.12
X219.81Y-203.61
X219.99Y-208.01
X220.02Y-162.9
X220.02Y-166.12
X220.03Y-214.24
X220.05Y-200.46
X220.05Y-216.74
X220.07Y-160.12
X220.24Y-169.66
X220.41Y-144.54
X220.88Y-224.58
X221.04Y-240.26
X221.06Y-212.22
X221.14Y-170.71
X221.42Y-201.83
X221.46Y-158.0
X221.48Y-220.9
X221.83Y-217.87
X222.07Y-222.15
X222.13Y-204.32
X222.25Y-212.64
X222.37Y-246.41
X222.39Y-146.99
X222.612Y-187.741
X222.84Y-208.6
X222.88Y-191.6
X223.03Y-145.13
X223.23Y-193.98
X223.28Y-238.35
X223.362Y-187.149
X223.94Y-195.99
X224.09Y-183.23
X224.32Y-159.77
X224.32Y-162.82
X224.33Y-184.49
X224.34Y-155.91
X224.41Y-152.71
X224.75Y-242.98
X225.12Y-185.52
X225.14Y-165.24
X225.25Y-193.08
X225.26Y-169.97
X225.39Y-167.65
X225.4Y-183.88
X225.5Y-239.97
X225.55Y-195.1
X225.63Y-247.23
X226.03Y-191.01
X226.15Y-213.88
X226.15Y-216.41
X226.33Y-184.75
X226.35Y-185.91
X226.35Y-210.47
X226.5Y-222.07
X226.53Y-176.5
X226.54Y-179.291
X226.54Y-218.83
X226.58Y-225.2
X226.66Y-183.4
X226.77Y-232.72
X226.86Y-166.76
X226.89Y-236.25
X226.98Y-196.0
X227.03Y-163.24
X227.13Y-158.36
X227.14Y-160.46
X227.42Y-223.14
X228.0Y-165.25
X228.04Y-240.88
X228.23Y-212.59
X228.31Y-238.54
X228.43Y-234.86
X228.68Y-221.84
X228.92Y-224.69
X228.94Y-169.966
X228.94Y-197.3
X229.06Y-193.5
X229.24Y-244.59
X229.51Y-219.59
X229.62Y-192.11
X229.65Y-190.56
X229.89Y-173.07
X230.27Y-181.74
X231.237Y-171.491
X231.43Y-195.64
X231.517Y-176.006
X231.593Y-175.0
X231.69Y-212.65
X231.825Y-152.125
X231.89Y-187.81
X231.95Y-177.46
X231.97Y-225.12
X231.98Y-233.08
X232.0Y-143.67
X232.11Y-203.51
X232.16Y-150.01
X232.82Y-207.63
X232.83Y-238.54
X232.84Y-174.84
X232.96Y-209.95
X233.22Y-240.05
X233.23Y-152.03
X233.3Y-242.47
X233.337Y-179.827
X233.63Y-171.541
X233.74Y-247.42
X233.77Y-177.93
X233.78Y-244.29
X234.11Y-197.3
X234.2Y-175.87
X234.36Y-207.07
X234.69Y-145.61
X234.72Y-205.01
X234.74Y-226.0
X234.82Y-208.57
X234.82Y-221.52
X234.94Y-217.56
X235.09Y-210.69
X235.09Y-242.58
X235.13Y-196.05
X235.14Y-219.86
X235.164Y-170.377
X235.34Y-203.74
X235.35Y-185.85
X235.387Y-171.491
X235.462Y-165.216
X235.58Y-178.66
X235.6Y-176.73
X235.73Y-206.31
X235.837Y-174.946
X236.15Y-186.31
X236.23Y-152.13
X236.37Y-188.21
X236.51Y-246.62
X236.562Y-165.25
X236.58Y-197.21
X236.63Y-150.36
X236.975Y-236.927
X237.5Y-143.59
X237.975Y-236.677
X238.26Y-173.17
X238.36Y-205.07
X238.37Y-207.27
X238.65Y-245.32
X239.08Y-203.71
X239.12Y-236.322
X240.0Y-246.39
X240.225Y-235.177
X240.575Y-165.2
X240.67Y-197.69
X240.72Y-203.78
X240.83Y-244.92
X240.87Y-159.59
X241.71Y-167.38
X241.86Y-245.91
X242.14Y-163.26
X242.405Y-236.498
X242.64Y-223.38
X242.65Y-247.57
X242.7Y-165.12
X242.74Y-169.6
X243.01Y-197.61
X243.21Y-163.03
X243.475Y-237.177
X243.52Y-191.81
X243.57Y-165.4
X243.77Y-159.3
X243.787Y-187.5
X243.81Y-167.78
X243.87Y-170.22
X243.96Y-156.13
X244.04Y-157.84
X244.08Y-161.4
X244.24Y-153.44
X244.36Y-154.79
X244.4Y-144.77
X244.47Y-247.57
X244.52Y-148.41
X244.616Y-237.287
X244.76Y-143.1
X244.86Y-185.86
X244.91Y-153.72
X244.97Y-181.79
X244.98Y-174.87
X245.02Y-177.65
X245.03Y-176.25
X245.04Y-179.02
X245.04Y-180.42
X245.21Y-183.76
X245.23Y-149.84
X245.25Y-189.17
X245.27Y-151.5
X245.27Y-191.68
X245.31Y-156.17
X245.43Y-170.8
X245.68Y-197.95
X245.725Y-236.927
X246.01Y-185.88
X246.23Y-189.82
X246.58Y-144.77
X246.66Y-143.06
X246.67Y-191.61
X246.72Y-188.73
X246.82Y-216.41
X246.85Y-213.94
X246.88Y-170.94
X246.91Y-211.39
X247.08Y-185.92
X247.22Y-222.55
X247.38Y-218.63
X247.58Y-223.5
X247.77Y-217.56
X248.05Y-226.35
X248.45Y-222.95
X248.47Y-244.57
X248.64Y-235.43
X248.68Y-144.37
X248.71Y-207.25
X248.84Y-218.55
X248.99Y-143.06
X249.0Y-217.04
X249.12Y-222.39
X249.24Y-226.27
X249.37Y-240.03
X249.4Y-219.54
X249.5Y-208.0
X249.72Y-147.86
X249.91Y-184.12
X249.93Y-190.03
X249.94Y-182.62
X249.98Y-167.68
X249.98Y-170.11
X249.98Y-171.09
X249.98Y-185.65
X249.98Y-188.54
X250.0Y-162.57
X250.0Y-176.14
X250.0Y-177.48
X250.0Y-181.02
X250.02Y-165.09
X250.02Y-179.14
X250.05Y-160.04
X250.19Y-243.52
X250.26Y-233.47
X250.46Y-152.73
X250.58Y-156.41
X250.63Y-236.45
X250.66Y-154.46
X251.16Y-241.63
X251.65Y-155.79
X252.75Y-191.0
X253.27Y-159.75
X253.39Y-143.18
X253.41Y-201.05
X253.45Y-210.25
X253.5Y-162.75
X253.73Y-158.68
X254.051Y-239.441
X254.45Y-244.691
X254.5Y-163.91
X254.82Y-143.14
X255.05Y-209.6
X255.32Y-201.13
X255.4Y-150.75
X255.5Y-169.06
X255.651Y-239.441
X255.85Y-144.01
X256.049Y-152.08
X256.5Y-166.45
X256.57Y-197.43
X256.6Y-150.75
X256.68Y-235.95
X256.8Y-143.14
X257.14Y-201.17
X257.148Y-208.849
X257.61Y-232.24
X258.0Y-168.82
X258.0Y-191.0
X258.09Y-196.97
X258.42Y-143.14
X258.6Y-195.51
X258.64Y-244.65
X258.76Y-192.97
X258.76Y-194.2
X258.96Y-201.17
X259.05Y-167.34
X259.25Y-211.25
X260.18Y-235.95
X260.53Y-221.65
X260.75Y-218.84
X260.87Y-215.12
X261.02Y-201.01
X261.22Y-147.86
X261.31Y-167.5
X261.46Y-235.38
X261.68Y-244.62
X261.74Y-186.79
X261.78Y-180.13
X261.78Y-188.73
X261.86Y-184.61
X261.89Y-197.49
X261.94Y-182.51
X262.02Y-178.33
X262.17Y-195.98
X262.37Y-200.3
X262.41Y-193.96
X262.51Y-154.4
X262.751Y-242.942
X262.86Y-151.22
X263.16Y-196.93
X263.25Y-167.3
X263.44Y-195.23
X263.57Y-143.14
X263.61Y-144.45
X263.73Y-149.6
X263.89Y-147.38
X263.93Y-231.2
X263.97Y-238.92
X264.23Y-194.04
X264.36Y-152.89
X264.48Y-154.47
X264.53Y-167.26
X264.58Y-196.82
X264.8Y-150.87
X264.9Y-195.03
X265.39Y-149.48
X265.62Y-231.21
X265.69Y-167.51
X265.92Y-217.97
X266.06Y-221.66
X266.46Y-152.89
X266.5Y-166.75
X266.5Y-197.75
X266.66Y-151.06
X266.82Y-154.59
X267.28Y-230.3
X267.32Y-218.36
X267.36Y-216.18
X267.37Y-149.4
X267.491Y-197.997
X267.5Y-167.5
X267.64Y-240.25
X267.77Y-232.93
X267.89Y-235.94
X268.25Y-168.25
X268.25Y-198.25
X268.33Y-214.25
X268.35Y-206.25
X268.48Y-151.14
X268.6Y-154.47
X268.64Y-153.12
X268.64Y-238.09
X268.87Y-149.39
X269.25Y-175.0
X269.25Y-198.5
X270.0Y-175.75
X270.009Y-198.753
X270.75Y-176.5
X270.75Y-199.25
X271.01Y-204.22
X271.445Y-200.555
X271.5Y-171.5
X271.97Y-236.76
X271.97Y-237.52
X271.97Y-238.28
X271.97Y-239.04
X271.97Y-239.8
X272.0Y-247.72
X272.0Y-248.492
X272.0Y-249.264
X272.0Y-250.036
X272.0Y-250.808
X272.0Y-251.58
X272.13Y-242.27
X272.13Y-243.077
X272.13Y-243.883
X272.13Y-244.69
X272.5Y-174.0
X272.5Y-200.55
X272.54Y-227.0
X272.55Y-230.0
X272.57Y-203.27
X272.75Y-217.51
X272.75Y-240.02
X272.81Y-247.73
X272.88Y-242.03
X272.89Y-244.69
X272.93Y-211.04
X273.2Y-236.88
X273.41Y-222.86
X273.49Y-240.18
X273.49Y-240.94
X273.49Y-241.67
X273.5Y-189.44
X273.55Y-218.32
X273.62Y-244.69
X273.62Y-245.43
X273.62Y-246.22
X273.62Y-246.96
X273.62Y-247.72
X273.68Y-213.9
X273.74Y-185.32
X273.81Y-197.86
X273.82Y-179.66
X273.84Y-194.98
X273.86Y-201.93
X273.92Y-193.66
X274.07Y-196.36
X274.1Y-188.14
X274.14Y-181.01
X274.75Y-203.67
X274.89Y-228.88
X275.0Y-148.875
X275.02Y-212.57
X275.02Y-216.31
X275.15Y-228.07
X275.21Y-180.49
X275.25Y-179.22
X275.37Y-188.17
X275.41Y-185.36
X275.5Y-189.793
X275.75Y-233.5
X275.82Y-219.79
X276.0Y-164.75
X276.0Y-165.46
X276.17Y-236.99
X276.17Y-237.844
X276.17Y-238.698
X276.17Y-239.552
X276.17Y-240.405
X276.17Y-241.259
X276.17Y-242.113
X276.17Y-242.967
X276.17Y-243.821
X276.17Y-244.675
X276.17Y-245.528
X276.17Y-246.382
X276.17Y-247.236
X276.18Y-247.93
X276.875Y-247.93
X277.0Y-179.25
X277.097Y-180.75
X277.1Y-185.55
X277.16Y-197.98
X277.16Y-222.99
X277.25Y-233.5
X277.57Y-247.93
X277.57Y-248.69
X277.57Y-249.45
X277.57Y-250.21
X277.57Y-250.97
X277.57Y-251.73
X277.69Y-213.37
X277.83Y-227.81
X278.23Y-210.43
X278.36Y-216.85
X278.62Y-197.07
X278.63Y-229.54
X278.73Y-233.44
X278.74Y-192.67
X278.92Y-220.07
X279.02Y-151.35
X279.14Y-185.68
X279.29Y-198.33
X279.83Y-212.3
X280.08Y-227.58
X280.3Y-192.87
X280.3Y-241.37
X280.5Y-185.6
X280.52Y-179.38
X281.5Y-227.66
X281.57Y-229.14
X281.75Y-207.79
X281.99Y-238.32
X282.34Y-240.58
X282.4Y-151.78
X282.5Y-153.05
X282.585Y-192.5
X282.86Y-215.6
X282.93Y-243.09
X283.0Y-149.25
X283.25Y-162.0
X283.37Y-209.21
X283.38Y-229.4
X283.45Y-197.26
X283.57Y-213.5
X283.75Y-171.5
X283.84Y-217.65
X283.84Y-220.19
X283.97Y-202.49
X284.25Y-153.0
X284.25Y-158.13
X284.38Y-211.9
X284.62Y-239.94
X284.75Y-174.0
X285.0Y-171.25
X285.16Y-201.26
X285.19Y-242.6
X285.25Y-154.25
X285.25Y-156.86
X285.25Y-168.83
X285.28Y-209.66
X285.55Y-202.81
X285.62Y-181.375
X285.75Y-207.72
X285.75Y-232.5
X285.85Y-213.64
X285.87Y-197.3
X285.95Y-149.69
X286.86Y-202.81
X286.9Y-202.81
X286.91Y-218.78
X286.92Y-221.26
X287.05Y-210.56
X287.19Y-162.86
X287.21Y-160.25
X287.25Y-178.0
X287.25Y-184.75
X287.27Y-164.32
X287.34Y-201.15
X287.35Y-242.3
X287.58Y-216.98
X287.61Y-190.81
X287.67Y-149.84
X287.71Y-239.7
X287.87Y-212.39
X287.94Y-194.93
X288.17Y-163.47
X288.21Y-197.54
X289.04Y-164.26
X289.06Y-149.69
X289.115Y-175.75
X289.2Y-160.33
X289.27Y-162.76
X289.32Y-190.85
X289.43Y-197.42
X289.59Y-227.14
X289.7Y-181.91
X289.75Y-193.99
X289.75Y-202.5
X289.75Y-223.0
X289.79Y-195.77
X290.18Y-182.79
X290.37Y-207.78
X290.385Y-176.5
X290.39Y-178.14
X290.39Y-230.35
X290.77Y-149.89
X290.86Y-182.0
X290.88Y-236.959
X290.88Y-237.719
X290.88Y-238.479
X290.88Y-239.239
X290.88Y-239.999
X290.91Y-247.919
X290.91Y-248.691
X290.91Y-249.463
X290.91Y-250.235
X290.91Y-251.007
X290.91Y-251.779
X291.0Y-202.5
X291.0Y-220.0
X291.04Y-182.7
X291.04Y-242.469
X291.04Y-243.266
X291.04Y-244.063
X291.04Y-244.859
X291.55Y-178.51
X291.655Y-175.0
X291.66Y-240.219
X291.67Y-177.28
X291.72Y-247.929
X291.75Y-207.25
X291.75Y-234.13
X291.76Y-242.24
X291.79Y-176.54
X291.8Y-244.839
X292.0Y-227.0
X292.0Y-228.88
X292.4Y-240.379
X292.4Y-241.139
X292.4Y-241.869
X292.53Y-244.889
X292.53Y-245.647
X292.53Y-246.404
X292.53Y-247.162
X292.53Y-247.919
X292.55Y-149.69
X292.75Y-207.25
X292.75Y-234.14
X292.925Y-192.5
X293.6Y-230.21
X293.77Y-203.44
X294.19Y-198.15
X294.195Y-185.605
X294.21Y-211.62
X294.27Y-227.0
X294.63Y-149.66
X294.75Y-234.11
X294.76Y-203.47
X295.08Y-237.189
X295.08Y-238.043
X295.08Y-238.897
X295.08Y-239.751
X295.08Y-240.605
X295.08Y-241.458
X295.08Y-242.312
X295.08Y-243.166
X295.08Y-244.02
X295.08Y-244.874
X295.08Y-245.728
X295.08Y-246.582
X295.08Y-247.435
X295.09Y-248.129
X295.12Y-196.96
X295.5Y-168.75
X295.5Y-180.75
X295.72Y-210.5
X295.785Y-248.129
X295.86Y-212.85
X295.89Y-158.75
X296.48Y-248.129
X296.48Y-248.889
X296.48Y-249.649
X296.48Y-250.409
X296.48Y-251.169
X296.48Y-251.929
X296.5Y-149.25
X296.65Y-154.46
X296.735Y-200.0
X296.81Y-156.56
X297.64Y-213.3
X298.0Y-168.75
X298.0Y-183.96
X298.0Y-226.0
X298.0Y-227.0
X298.01Y-230.0
X298.31Y-202.47
X298.47Y-207.67
X298.64Y-211.01
X298.75Y-199.02
X299.25Y-168.75
X299.25Y-186.8
X299.65Y-237.63
X299.9Y-165.71
X300.54Y-244.58
X300.75Y-150.51
X300.8Y-168.01
X300.81Y-240.75
X300.82Y-181.78
X300.82Y-186.72
X300.88Y-152.62
X300.88Y-184.34
X300.95Y-161.84
X301.0Y-179.59
X301.04Y-176.21
X301.12Y-163.93
X301.12Y-171.54
X301.12Y-201.28
X301.12Y-203.94
X301.17Y-174.23
X301.45Y-153.46
X301.45Y-177.83
X301.56Y-166.9
X301.94Y-213.15
X301.99Y-176.07
X302.0Y-208.84
X302.0Y-209.89
X302.0Y-210.82
X302.01Y-186.0
X302.16Y-164.18
X302.19Y-183.92
X302.31Y-179.47
X302.31Y-182.02
X302.41Y-242.89
X302.47Y-171.54
X302.59Y-170.43
X302.72Y-174.47
X302.73Y-213.15
X302.75Y-205.85
X302.92Y-208.84
X303.03Y-238.32
X303.07Y-199.3
X303.08Y-187.19
X303.5Y-235.75
X303.52Y-213.15
X303.75Y-177.5
X303.86Y-208.84
X304.29Y-201.76
X304.31Y-213.15
X304.5Y-149.22
X304.57Y-204.25
X304.83Y-208.84
X304.83Y-209.83
X304.83Y-210.59
X305.1Y-213.15
X305.23Y-240.46
X305.51Y-188.79
X305.69Y-191.53
X305.78Y-210.59
X305.89Y-213.15
X306.06Y-174.98
X306.13Y-173.34
X306.18Y-178.8
X306.25Y-193.58
X306.34Y-245.56
X306.35Y-199.86
X306.68Y-213.15
X306.7Y-208.84
X306.7Y-209.65
X306.7Y-210.59
X306.81Y-231.33
X306.91Y-202.39
X306.96Y-237.81
X307.47Y-213.15
X307.56Y-208.84
X307.64Y-225.61
X307.83Y-190.34
X307.9Y-205.36
X308.22Y-172.94
X308.259Y-213.15
X308.31Y-174.54
X308.37Y-178.89
X308.42Y-208.84
X308.47Y-240.66
X308.48Y-191.35
X308.91Y-228.42
X309.049Y-213.15
X309.15Y-230.2
X309.28Y-208.84
X309.29Y-209.71
X309.301Y-210.6
X309.38Y-193.19
X309.42Y-154.08
X309.43Y-155.77
X309.839Y-213.15
X310.09Y-172.76
X310.155Y-210.6
X310.2Y-174.96
X310.3Y-178.91
X310.33Y-192.24
X310.629Y-213.15
X310.75Y-150.5
X310.88Y-242.62
X311.008Y-210.6
X311.39Y-213.15
X311.39Y-213.913
X311.39Y-214.677
X311.39Y-215.44
X311.42Y-238.43
X311.862Y-210.6
X312.14Y-152.4
X312.3Y-166.62
X312.42Y-159.81
X312.42Y-161.08
X312.5Y-157.47
X312.54Y-205.44
X312.66Y-227.83
X312.716Y-210.6
X312.96Y-173.49
X313.05Y-164.09
X313.1Y-175.03
X313.37Y-153.99
X313.47Y-183.74
X313.57Y-210.6
X313.93Y-174.12
X314.08Y-154.82
X314.25Y-177.5
X314.37Y-213.15
X314.37Y-213.913
X314.37Y-214.677
X314.37Y-215.44
X314.424Y-210.6
X314.52Y-159.73
X314.52Y-161.35
X314.92Y-164.09
X315.11Y-175.83
X315.16Y-228.63
X315.179Y-213.15
X315.278Y-210.6
X315.34Y-205.32
X315.79Y-184.46
X315.96Y-224.88
X315.969Y-213.15
X316.132Y-210.6
X316.25Y-200.06
X316.709Y-213.15
X316.985Y-210.6
X317.34Y-186.0
X317.469Y-213.15
X317.469Y-214.77
X317.479Y-213.96
X317.679Y-209.2
X317.679Y-209.895
X317.679Y-210.59
X318.01Y-231.49
X318.01Y-233.98
X318.05Y-187.13
X318.241Y-214.77
X318.439Y-209.2
X318.46Y-221.14
X318.76Y-173.35
X318.82Y-175.31
X318.84Y-205.38
X318.9Y-218.47
X319.013Y-214.77
X319.199Y-209.2
X319.785Y-214.77
X319.83Y-187.78
X319.89Y-191.59
X319.92Y-223.74
X319.959Y-209.2
X320.06Y-227.56
X320.25Y-193.86
X320.26Y-178.7
X320.31Y-174.0
X320.33Y-219.27
X320.557Y-214.77
X320.66Y-190.4
X320.719Y-209.2
X320.84Y-171.98
X320.84Y-185.23
X321.32Y-174.48
X321.329Y-214.77
X321.479Y-209.2
X322.0Y-154.14
X322.04Y-156.2
X322.04Y-158.66
X322.04Y-160.84
X322.04Y-163.33
X322.08Y-171.02
X322.21Y-177.8
X322.28Y-168.92
X322.52Y-166.19
T3
X186.795Y-213.85
X186.795Y-215.05
X187.895Y-213.85
X187.895Y-215.05
X189.195Y-213.85
X189.195Y-215.05
X190.395Y-213.85
X190.395Y-215.05
X207.295Y-200.2
X207.295Y-201.4
X208.395Y-200.2
X208.395Y-201.4
X209.695Y-200.2
X209.695Y-201.4
X210.895Y-200.2
X210.895Y-201.4
T4
X228.41Y-208.72
X240.25Y-230.5
X251.0Y-225.0
X251.5Y-158.75
X251.5Y-174.87
X260.25Y-192.75
X263.75Y-172.75
T5
X133.84Y-148.16
X133.84Y-245.16
X134.543Y-146.463
X134.543Y-149.857
X134.543Y-243.463
X134.543Y-246.857
X136.24Y-145.76
X136.24Y-150.56
X136.24Y-242.76
X136.24Y-247.56
X137.937Y-146.463
X137.937Y-149.857
X137.937Y-243.463
X137.937Y-246.857
X138.64Y-148.16
X138.64Y-245.16
X213.86Y-224.56
X219.25Y-233.07
X245.62Y-158.83
X245.62Y-161.37
X245.62Y-163.91
X245.62Y-166.45
X245.62Y-168.99
X248.32Y-210.2
X248.32Y-212.74
X248.32Y-215.28
X295.03Y-189.05
X295.03Y-191.58
X295.03Y-194.11
X301.1Y-189.05
X301.1Y-191.58
X301.1Y-194.11
X305.71Y-214.81
X305.71Y-217.507
X305.71Y-220.203
X305.71Y-222.9
X309.35Y-202.28
X310.75Y-232.85
X310.75Y-235.75
X311.89Y-202.28
X314.43Y-202.28
X315.85Y-148.15
X315.85Y-245.16
X316.553Y-146.453
X316.553Y-149.847
X316.553Y-243.463
X316.553Y-246.857
X316.97Y-202.28
X318.25Y-145.75
X318.25Y-150.55
X318.25Y-242.76
X318.25Y-247.56
X319.51Y-202.28
X319.947Y-146.453
X319.947Y-149.847
X319.947Y-243.463
X319.947Y-246.857
X320.65Y-148.15
X320.65Y-245.16
T7
X263.73Y-181.72
T8
X185.41Y-201.65
X193.54Y-186.08
X197.588Y-230.5
X197.588Y-243.25
X207.545Y-193.335
X220.75Y-172.991
X220.75Y-189.5
X224.5Y-201.25
X224.5Y-235.75
X248.5Y-172.75
X248.5Y-189.5
X248.5Y-201.25
X251.0Y-221.0
X251.0Y-230.5
X251.5Y-150.5
X251.5Y-189.5
X260.25Y-170.0
X260.25Y-199.25
X264.71Y-224.75
X274.5Y-150.5
X274.5Y-157.0
X303.45Y-224.75
T9
X141.66Y-189.57
X141.66Y-194.57
X156.5Y-221.2
X159.2Y-213.7
X162.81Y-189.54
X162.81Y-194.54
T11
X229.797Y-160.281
X231.067Y-157.741
X232.337Y-160.281
X233.607Y-157.741
X234.877Y-160.281
X236.147Y-157.741
X237.417Y-160.281
X238.688Y-157.741
T12
X148.25Y-188.8
X148.25Y-195.8
X156.25Y-188.8
X156.25Y-195.8
T13
X263.73Y-184.26
X263.73Y-186.8
X263.73Y-189.34
X317.25Y-155.17
X317.25Y-157.71
X317.25Y-160.25
X317.25Y-162.79
X317.25Y-165.33
X317.25Y-167.87
X317.25Y-170.41
T14
X227.612Y-146.491
X230.153Y-146.491
X238.322Y-146.491
X240.862Y-146.491
T15
X144.7Y-183.2
X159.7Y-183.2
T16
X145.25Y-156.25
X145.25Y-165.25
X196.25Y-147.25
X196.25Y-174.25
T17
X136.24Y-148.16
X136.24Y-245.16
X318.25Y-148.15
X318.25Y-245.16
T6
G00X251.43Y-144.075
M15
G01X251.43Y-143.275
M16
G05
G00X251.43Y-148.405
M15
G01X251.43Y-147.305
M16
G05
G00X260.07Y-144.075
M15
G01X260.07Y-143.275
M16
G05
G00X260.07Y-148.405
M15
G01X260.07Y-147.305
M16
G05
T10
G00X148.725Y-199.7
M15
G01X149.675Y-199.7
M16
G05
G00X148.725Y-222.45
M15
G01X149.675Y-222.45
M16
G05
T13
G00X148.26Y-237.89
M15
G01X149.76Y-237.89
M16
G05
G00X157.76Y-237.89
M15
G01X159.26Y-237.89
M16
G05
G00X167.26Y-237.89
M15
G01X168.76Y-237.89
M16
G05
T16
G00X226.492Y-154.041
M15
G01X226.492Y-154.841
M16
G05
G00X241.982Y-154.041
M15
G01X241.982Y-154.841
M16
G05
M30
